<?xml version="1.0" encoding="UTF-8"?>
<!DOCTYPE svg PUBLIC "-//W3C//DTD SVG 1.1//EN" "http://www.w3.org/Graphics/SVG/1.1/DTD/svg11.dtd">
<svg xmlns="http://www.w3.org/2000/svg" version="1.1" width="512px" height="512px" style="shape-rendering:geometricPrecision; text-rendering:geometricPrecision; image-rendering:optimizeQuality; fill-rule:evenodd; clip-rule:evenodd" xmlns:xlink="http://www.w3.org/1999/xlink">
<g><path style="opacity:1" fill="#f3f3f3" d="M -0.5,-0.5 C 170.167,-0.5 340.833,-0.5 511.5,-0.5C 511.5,170.167 511.5,340.833 511.5,511.5C 340.833,511.5 170.167,511.5 -0.5,511.5C -0.5,340.833 -0.5,170.167 -0.5,-0.5 Z"/></g>
<g><path style="opacity:1" fill="#20899b" d="M 186.5,91.5 C 183.316,92.3232 179.983,92.9899 176.5,93.5C 174.833,93.5 173.167,93.5 171.5,93.5C 171.192,99.4254 171.525,105.259 172.5,111C 176.075,111.101 179.575,110.601 183,109.5C 190.636,111.288 198.469,111.955 206.5,111.5C 207.167,111.167 207.833,110.833 208.5,110.5C 214.645,111.49 220.978,111.823 227.5,111.5C 228.167,111.167 228.833,110.833 229.5,110.5C 241.432,122.771 242.599,136.104 233,150.5C 231.629,152.041 230.129,153.375 228.5,154.5C 225.431,153.257 222.098,152.591 218.5,152.5C 215.314,152.502 212.314,152.835 209.5,153.5C 206.097,158.234 201.764,161.901 196.5,164.5C 195.833,164.5 195.5,164.167 195.5,163.5C 196.414,160.272 196.747,156.939 196.5,153.5C 192.833,153.5 189.167,153.5 185.5,153.5C 185.769,157.931 185.436,162.265 184.5,166.5C 183.833,164.5 183.167,162.5 182.5,160.5C 182.663,158.143 182.497,155.81 182,153.5C 179.708,173.301 178.208,173.301 177.5,153.5C 175.5,153.5 173.5,153.5 171.5,153.5C 171.5,159.167 171.5,164.833 171.5,170.5C 170.833,169.833 170.167,169.167 169.5,168.5C 167.682,163.729 167.015,158.729 167.5,153.5C 165.833,153.5 164.167,153.5 162.5,153.5C 162.666,157.514 162.499,161.514 162,165.5C 161.29,166.973 160.124,167.64 158.5,167.5C 158.5,162.833 158.5,158.167 158.5,153.5C 155.167,153.5 151.833,153.5 148.5,153.5C 148.335,156.85 148.502,160.183 149,163.5C 149.698,164.691 150.531,165.691 151.5,166.5C 150.833,166.5 150.5,166.833 150.5,167.5C 147.447,166.223 144.614,164.556 142,162.5C 141.282,163.451 140.449,163.617 139.5,163C 138.777,160.982 137.777,159.148 136.5,157.5C 137.984,156.527 138.484,155.193 138,153.5C 136.378,152.901 134.878,152.234 133.5,151.5C 134.833,151.5 136.167,151.5 137.5,151.5C 137.34,148.116 137.673,144.783 138.5,141.5C 137.315,139.289 136.315,136.955 135.5,134.5C 132.914,133.52 130.247,133.187 127.5,133.5C 126.532,135.607 126.198,137.941 126.5,140.5C 125.388,138.401 124.721,136.067 124.5,133.5C 117.833,133.5 111.167,133.5 104.5,133.5C 104.5,134.5 104.5,135.5 104.5,136.5C 103.662,136.842 103.328,137.508 103.5,138.5C 100.533,125.563 104.533,115.063 115.5,107C 137,92.4647 160.667,87.298 186.5,91.5 Z"/></g>
<g><path style="opacity:1" fill="#ebf0f0" d="M 167.5,93.5 C 169.442,98.0557 170.108,103.056 169.5,108.5C 165.818,108.335 162.152,108.501 158.5,109C 155.291,111.44 151.625,112.107 147.5,111C 144.833,107.667 142.167,107.667 139.5,111C 138.167,111.667 136.833,111.667 135.5,111C 144.276,101.778 154.942,95.9443 167.5,93.5 Z"/></g>
<g><path style="opacity:1" fill="#6eb4be" d="M 167.5,93.5 C 168.209,92.596 169.209,92.2627 170.5,92.5C 170.821,98.0262 170.488,103.36 169.5,108.5C 170.108,103.056 169.442,98.0557 167.5,93.5 Z"/></g>
<g><path style="opacity:1" fill="#ebf0f0" d="M 151.5,93.5 C 153.527,93.3379 155.527,93.5045 157.5,94C 147.642,97.4288 139.308,103.095 132.5,111C 126.5,111.667 120.5,111.667 114.5,111C 125.365,101.899 137.698,96.0661 151.5,93.5 Z"/></g>
<g><path style="opacity:1" fill="#3794a4" d="M 186.5,91.5 C 202.927,93.408 217.26,99.7413 229.5,110.5C 228.833,110.833 228.167,111.167 227.5,111.5C 222.591,106.7 216.925,102.867 210.5,100C 201.859,96.1134 192.859,94.1134 183.5,94C 193.345,97.3692 201.678,102.869 208.5,110.5C 207.833,110.833 207.167,111.167 206.5,111.5C 198.348,102.424 188.348,96.4239 176.5,93.5C 179.983,92.9899 183.316,92.3232 186.5,91.5 Z"/></g>
<g><path style="opacity:1" fill="#ebeff0" d="M 227.5,111.5 C 220.978,111.823 214.645,111.49 208.5,110.5C 201.678,102.869 193.345,97.3692 183.5,94C 192.859,94.1134 201.859,96.1134 210.5,100C 216.925,102.867 222.591,106.7 227.5,111.5 Z"/></g>
<g><path style="opacity:1" fill="#248b9d" d="M 162.5,96.5 C 167.383,97.4655 168.717,100.299 166.5,105C 161.502,106.33 159.336,104.496 160,99.5C 160.698,98.3094 161.531,97.3094 162.5,96.5 Z"/></g>
<g><path style="opacity:1" fill="#ebeff0" d="M 176.5,93.5 C 188.348,96.4239 198.348,102.424 206.5,111.5C 198.469,111.955 190.636,111.288 183,109.5C 179.575,110.601 176.075,111.101 172.5,111C 171.525,105.259 171.192,99.4254 171.5,93.5C 173.167,93.5 174.833,93.5 176.5,93.5 Z"/></g>
<g><path style="opacity:1" fill="#1d899b" d="M 181.5,98.5 C 187.643,99.0262 188.976,101.86 185.5,107C 180.504,107.664 178.67,105.498 180,100.5C 180.717,99.9558 181.217,99.2891 181.5,98.5 Z"/></g>
<g><path style="opacity:1" fill="#8bc1c9" d="M 176.5,114.5 C 175.791,113.596 174.791,113.263 173.5,113.5C 173.5,114.833 173.5,116.167 173.5,117.5C 172.549,116.081 172.216,114.415 172.5,112.5C 174.288,112.215 175.955,112.548 177.5,113.5C 177.376,114.107 177.043,114.44 176.5,114.5 Z"/></g>
<g><path style="opacity:1" fill="#8ac1c9" d="M 208.5,113.5 C 201.978,113.177 195.645,113.51 189.5,114.5C 188.957,114.44 188.624,114.107 188.5,113.5C 195.322,112.182 201.989,112.182 208.5,113.5 Z"/></g>
<g><path style="opacity:1" fill="#8cc2ca" d="M 229.5,113.5 C 223.31,113.177 217.31,113.51 211.5,114.5C 210.957,114.44 210.624,114.107 210.5,113.5C 216.988,112.183 223.322,112.183 229.5,113.5 Z"/></g>
<g><path style="opacity:1" fill="#f2f3f3" d="M 111.5,113.5 C 117.842,113.334 124.175,113.5 130.5,114C 127.002,119.329 125.002,125.162 124.5,131.5C 117.833,131.5 111.167,131.5 104.5,131.5C 104.622,124.598 106.955,118.598 111.5,113.5 Z"/></g>
<g><path style="opacity:1" fill="#eef1f1" d="M 135.5,131.5 C 132.833,131.5 130.167,131.5 127.5,131.5C 127.5,130.167 127.5,128.833 127.5,127.5C 128.272,122.456 130.272,117.956 133.5,114C 135.579,113.192 137.579,113.359 139.5,114.5C 142.167,118.5 144.833,118.5 147.5,114.5C 150.428,113.516 153.428,113.183 156.5,113.5C 155.785,119.36 154.285,125.027 152,130.5C 150.156,127.467 149.156,124.134 149,120.5C 139.063,117.26 134.563,120.926 135.5,131.5 Z"/></g>
<g><path style="opacity:1" fill="#eaeff0" d="M 176.5,114.5 C 176.23,117.702 175.396,120.702 174,123.5C 173.505,121.527 173.338,119.527 173.5,117.5C 173.5,116.167 173.5,114.833 173.5,113.5C 174.791,113.263 175.791,113.596 176.5,114.5 Z"/></g>
<g><path style="opacity:1" fill="#edf0f1" d="M 208.5,113.5 C 212.296,118.889 214.296,124.889 214.5,131.5C 212.076,131.808 209.743,131.474 207.5,130.5C 203.655,126.93 199.489,126.597 195,129.5C 192.303,124.919 190.47,119.919 189.5,114.5C 195.645,113.51 201.978,113.177 208.5,113.5 Z"/></g>
<g><path style="opacity:1" fill="#f2f3f3" d="M 229.5,113.5 C 234.326,118.49 236.993,124.49 237.5,131.5C 230.833,131.5 224.167,131.5 217.5,131.5C 217.737,130.209 217.404,129.209 216.5,128.5C 216.012,123.368 214.346,118.701 211.5,114.5C 217.31,113.51 223.31,113.177 229.5,113.5 Z"/></g>
<g><path style="opacity:1" fill="#218a9c" d="M 200.5,117.5 C 207.004,117.138 208.671,119.638 205.5,125C 199.593,125.746 197.927,123.246 200.5,117.5 Z"/></g>
<g><path style="opacity:1" fill="#bfdade" d="M 176.5,126.5 C 178.247,130.944 176.58,132.944 171.5,132.5C 171.38,129.795 172.38,129.128 174.5,130.5C 175.705,129.423 176.372,128.09 176.5,126.5 Z"/></g>
<g><path style="opacity:1" fill="#c8dee2" d="M 188.5,128.5 C 190.088,129.635 190.421,130.969 189.5,132.5C 188.571,131.311 188.238,129.978 188.5,128.5 Z"/></g>
<g><path style="opacity:1" fill="#87bfc8" d="M 127.5,127.5 C 127.5,128.833 127.5,130.167 127.5,131.5C 130.167,131.5 132.833,131.5 135.5,131.5C 132.713,132.477 129.713,132.81 126.5,132.5C 126.216,130.585 126.549,128.919 127.5,127.5 Z"/></g>
<g><path style="opacity:1" fill="#8fc3cb" d="M 216.5,128.5 C 217.404,129.209 217.737,130.209 217.5,131.5C 224.167,131.5 230.833,131.5 237.5,131.5C 230.687,132.491 223.687,132.825 216.5,132.5C 216.5,131.167 216.5,129.833 216.5,128.5 Z"/></g>
<g><path style="opacity:1" fill="#eff1f2" d="M 126.5,140.5 C 126.944,144.332 128.278,147.832 130.5,151C 124.5,151.667 118.5,151.667 112.5,151C 108.392,146.949 105.725,142.116 104.5,136.5C 104.5,135.5 104.5,134.5 104.5,133.5C 111.167,133.5 117.833,133.5 124.5,133.5C 124.721,136.067 125.388,138.401 126.5,140.5 Z"/></g>
<g><path style="opacity:1" fill="#edf0f1" d="M 127.5,133.5 C 130.247,133.187 132.914,133.52 135.5,134.5C 136.315,136.955 137.315,139.289 138.5,141.5C 137.673,144.783 137.34,148.116 137.5,151.5C 136.167,151.5 134.833,151.5 133.5,151.5C 129.353,146.258 127.353,140.258 127.5,133.5 Z"/></g>
<g><path style="opacity:1" fill="#f0f2f2" d="M 155.5,133.5 C 157.453,139.074 158.12,145.074 157.5,151.5C 154.833,151.5 152.167,151.5 149.5,151.5C 149.334,146.156 149.501,140.823 150,135.5C 152.528,136.934 154.362,136.267 155.5,133.5 Z"/></g>
<g><path style="opacity:1" fill="#eef1f1" d="M 175.5,135.5 C 175.23,141.097 174.23,146.43 172.5,151.5C 172.5,145.833 172.5,140.167 172.5,134.5C 173.791,134.263 174.791,134.596 175.5,135.5 Z"/></g>
<g><path style="opacity:1" fill="#e7edee" d="M 189.5,133.5 C 191.854,133.838 194.187,134.338 196.5,135C 191.995,157.026 189.661,156.526 189.5,133.5 Z"/></g>
<g><path style="opacity:1" fill="#e9eeef" d="M 207.5,133.5 C 209.833,133.5 212.167,133.5 214.5,133.5C 214.359,139.735 212.526,145.402 209,150.5C 207.123,144.888 206.623,139.222 207.5,133.5 Z"/></g>
<g><path style="opacity:1" fill="#eef1f1" d="M 216.5,133.5 C 223.5,133.5 230.5,133.5 237.5,133.5C 237.044,140.377 234.377,146.21 229.5,151C 223.472,151.83 217.472,151.664 211.5,150.5C 214.876,145.328 216.543,139.661 216.5,133.5 Z"/></g>
<g><path style="opacity:1" fill="#138598" d="M 92.5,139.5 C 96.6826,138.846 99.516,140.512 101,144.5C 104.352,154.922 107.852,165.256 111.5,175.5C 119.66,181.414 127.993,187.081 136.5,192.5C 133.553,188.011 129.719,183.677 125,179.5C 121.015,172.458 123.181,169.291 131.5,170C 142.293,178.457 152.793,187.291 163,196.5C 164.093,200.216 164.593,204.05 164.5,208C 164.02,221.267 162.686,234.434 160.5,247.5C 146.833,247.5 133.167,247.5 119.5,247.5C 121.944,238.336 125.277,229.503 129.5,221C 119.346,209.512 108.512,198.679 97,188.5C 94.9144,174.147 92.7478,159.814 90.5,145.5C 90.3631,143.159 91.0298,141.159 92.5,139.5 Z"/></g>
<g><path style="opacity:1" fill="#128598" d="M 221.5,245.5 C 208.01,246.496 194.344,246.829 180.5,246.5C 178.895,233.702 177.562,220.869 176.5,208C 176.472,204.41 176.972,200.91 178,197.5C 187.908,187.588 198.408,178.421 209.5,170C 215.868,168.742 218.702,171.242 218,177.5C 213.667,181.833 209.333,186.167 205,190.5C 204.312,191.332 204.479,191.998 205.5,192.5C 213.363,186.805 221.363,181.305 229.5,176C 233.444,166.834 236.611,157.334 239,147.5C 240.686,141.919 244.186,139.585 249.5,140.5C 250.84,141.688 251.507,143.188 251.5,145C 248.963,158.759 246.796,172.592 245,186.5C 244.333,187.833 243.667,189.167 243,190.5C 235.833,197 228.667,203.5 221.5,210C 217.907,213.085 214.907,216.585 212.5,220.5C 215.706,228.787 218.706,237.12 221.5,245.5 Z"/></g>
<g><path style="opacity:1" fill="#dee9eb" d="M 164.5,140.5 C 165.222,140.918 165.722,141.584 166,142.5C 166.498,145.482 166.665,148.482 166.5,151.5C 165.5,151.5 164.5,151.5 163.5,151.5C 163.244,147.731 163.577,144.064 164.5,140.5 Z"/></g>
<g><path style="opacity:1" fill="#bdd9de" d="M 175.5,135.5 C 174.791,134.596 173.791,134.263 172.5,134.5C 172.5,140.167 172.5,145.833 172.5,151.5C 171.51,145.69 171.177,139.69 171.5,133.5C 173.288,133.215 174.955,133.548 176.5,134.5C 176.376,135.107 176.043,135.44 175.5,135.5 Z"/></g>
<g><path style="opacity:1" fill="#bbd8dd" d="M 143.5,147.5 C 144.782,148.708 144.782,150.042 143.5,151.5C 142.374,150.192 142.374,148.858 143.5,147.5 Z"/></g>
<g><path style="opacity:1" fill="#3291a2" d="M 127.5,133.5 C 127.353,140.258 129.353,146.258 133.5,151.5C 134.878,152.234 136.378,152.901 138,153.5C 138.484,155.193 137.984,156.527 136.5,157.5C 133.174,154.008 129.008,152.675 124,153.5C 121.167,153.667 118.333,153.833 115.5,154C 127.051,163.775 140.385,169.108 155.5,170C 153.807,169.153 152.14,168.32 150.5,167.5C 150.5,166.833 150.833,166.5 151.5,166.5C 157.165,169.33 163.165,170.997 169.5,171.5C 169.5,170.5 169.5,169.5 169.5,168.5C 170.167,169.167 170.833,169.833 171.5,170.5C 179.842,170.286 187.842,167.952 195.5,163.5C 195.5,164.167 195.833,164.5 196.5,164.5C 193.389,166.559 190.056,168.392 186.5,170C 201.547,168.984 214.881,163.65 226.5,154C 220.843,153.501 215.176,153.334 209.5,153.5C 212.314,152.835 215.314,152.502 218.5,152.5C 222.098,152.591 225.431,153.257 228.5,154.5C 219.465,162.853 208.798,168.353 196.5,171C 170.685,176.828 146.018,173.828 122.5,162C 114.617,157.118 108.451,150.618 104,142.5C 103.51,141.207 103.343,139.873 103.5,138.5C 103.328,137.508 103.662,136.842 104.5,136.5C 105.725,142.116 108.392,146.949 112.5,151C 118.5,151.667 124.5,151.667 130.5,151C 128.278,147.832 126.944,144.332 126.5,140.5C 126.198,137.941 126.532,135.607 127.5,133.5 Z"/></g>
<g><path style="opacity:1" fill="#96c6cd" d="M 199.5,154.5 C 200.793,156.364 200.793,158.364 199.5,160.5C 198.481,158.54 198.481,156.54 199.5,154.5 Z"/></g>
<g><path style="opacity:1" fill="#eef1f1" d="M 209.5,153.5 C 215.176,153.334 220.843,153.501 226.5,154C 214.881,163.65 201.547,168.984 186.5,170C 190.056,168.392 193.389,166.559 196.5,164.5C 201.764,161.901 206.097,158.234 209.5,153.5 Z"/></g>
<g><path style="opacity:1" fill="#d1e3e5" d="M 203.5,153.5 C 207.133,153.443 207.3,154.443 204,156.5C 203.517,155.552 203.351,154.552 203.5,153.5 Z"/></g>
<g><path style="opacity:1" fill="#ebf0f0" d="M 182.5,160.5 C 182.192,162.924 182.526,165.257 183.5,167.5C 184.107,167.376 184.44,167.043 184.5,166.5C 185.436,162.265 185.769,157.931 185.5,153.5C 189.167,153.5 192.833,153.5 196.5,153.5C 196.747,156.939 196.414,160.272 195.5,163.5C 187.842,167.952 179.842,170.286 171.5,170.5C 171.5,164.833 171.5,159.167 171.5,153.5C 173.5,153.5 175.5,153.5 177.5,153.5C 178.208,173.301 179.708,173.301 182,153.5C 182.497,155.81 182.663,158.143 182.5,160.5 Z"/></g>
<g><path style="opacity:1" fill="#86bfc8" d="M 182.5,160.5 C 183.167,162.5 183.833,164.5 184.5,166.5C 184.44,167.043 184.107,167.376 183.5,167.5C 182.526,165.257 182.192,162.924 182.5,160.5 Z"/></g>
<g><path style="opacity:1" fill="#ebeff0" d="M 169.5,168.5 C 169.5,169.5 169.5,170.5 169.5,171.5C 163.165,170.997 157.165,169.33 151.5,166.5C 150.531,165.691 149.698,164.691 149,163.5C 148.502,160.183 148.335,156.85 148.5,153.5C 151.833,153.5 155.167,153.5 158.5,153.5C 158.5,158.167 158.5,162.833 158.5,167.5C 160.124,167.64 161.29,166.973 162,165.5C 162.499,161.514 162.666,157.514 162.5,153.5C 164.167,153.5 165.833,153.5 167.5,153.5C 167.015,158.729 167.682,163.729 169.5,168.5 Z"/></g>
<g><path style="opacity:1" fill="#dde8ea" d="M 141.5,153.5 C 142.5,153.5 143.5,153.5 144.5,153.5C 144.664,156.187 144.497,158.854 144,161.5C 141.835,159.347 141.002,156.681 141.5,153.5 Z"/></g>
<g><path style="opacity:1" fill="#ebeff0" d="M 136.5,157.5 C 137.777,159.148 138.777,160.982 139.5,163C 140.449,163.617 141.282,163.451 142,162.5C 144.614,164.556 147.447,166.223 150.5,167.5C 152.14,168.32 153.807,169.153 155.5,170C 140.385,169.108 127.051,163.775 115.5,154C 118.333,153.833 121.167,153.667 124,153.5C 129.008,152.675 133.174,154.008 136.5,157.5 Z"/></g>
<g><path style="opacity:1" fill="#55a7b4" d="M 221.5,245.5 C 222.043,245.56 222.376,245.893 222.5,246.5C 208.339,247.826 194.339,247.826 180.5,246.5C 194.344,246.829 208.01,246.496 221.5,245.5 Z"/></g>
<g><path style="opacity:1" fill="#128598" d="M 151.5,282.5 C 167.953,281.223 183.286,284.723 197.5,293C 199.846,294.013 201.513,295.679 202.5,298C 198.035,304.434 193.702,310.934 189.5,317.5C 178.635,308.956 166.302,305.789 152.5,308C 127.006,315.17 115.173,332.003 117,358.5C 121.792,381.957 136.126,394.957 160,397.5C 171.34,396.961 181.507,393.294 190.5,386.5C 194.554,393.441 199.22,399.941 204.5,406C 185.614,420.303 164.614,424.636 141.5,419C 104.799,404.796 88.6328,377.963 93,338.5C 101.34,307.99 120.84,289.323 151.5,282.5 Z"/></g>
<g><path style="opacity:1" fill="#128598" d="M 254.5,282.5 C 267.564,281.716 280.23,283.549 292.5,288C 298.191,290.213 303.191,293.38 307.5,297.5C 303.167,304.167 298.833,310.833 294.5,317.5C 278.046,306.028 260.713,304.528 242.5,313C 221.751,327.923 215.917,347.423 225,371.5C 235.333,390.917 251.499,399.084 273.5,396C 282.77,394.199 290.77,390.032 297.5,383.5C 299.739,391.729 303.406,399.229 308.5,406C 290.013,420.431 269.346,424.765 246.5,419C 210.978,405.482 194.478,379.648 197,341.5C 203.898,309.77 223.064,290.103 254.5,282.5 Z"/></g>
<g><path style="opacity:1" fill="#118598" d="M 394.5,283.5 C 403.167,283.5 411.833,283.5 420.5,283.5C 420.667,314.168 420.5,344.835 420,375.5C 417.091,397.843 404.924,412.343 383.5,419C 372.544,420.517 361.544,420.85 350.5,420C 329.094,415.559 315.927,402.726 311,381.5C 309.829,367.865 309.162,354.198 309,340.5C 307.441,335.717 305.607,331.05 303.5,326.5C 307.734,319.038 312.234,311.704 317,304.5C 327.153,312.804 333.153,323.471 335,336.5C 335.333,347.833 335.667,359.167 336,370.5C 340.899,391.71 354.066,399.877 375.5,395C 386.161,390.326 392.328,382.159 394,370.5C 394.5,341.502 394.667,312.502 394.5,283.5 Z"/></g>
</svg>
