<?xml version="1.0" encoding="UTF-8"?>
<!DOCTYPE svg PUBLIC "-//W3C//DTD SVG 1.1//EN" "http://www.w3.org/Graphics/SVG/1.1/DTD/svg11.dtd">
<svg xmlns="http://www.w3.org/2000/svg" version="1.1" width="512px" height="512px" style="shape-rendering:geometricPrecision; text-rendering:geometricPrecision; image-rendering:optimizeQuality; fill-rule:evenodd; clip-rule:evenodd" xmlns:xlink="http://www.w3.org/1999/xlink">
<g><path style="opacity:0.95" fill="#fea75f" d="M 161.5,-0.5 C 164.167,-0.5 166.833,-0.5 169.5,-0.5C 171.144,0.316435 172.31,1.64977 173,3.5C 173.5,11.8267 173.666,20.16 173.5,28.5C 168.266,29.8021 162.933,29.8021 157.5,28.5C 157.334,20.4931 157.5,12.4931 158,4.5C 158.997,2.67694 160.164,1.01027 161.5,-0.5 Z"/></g>
<g><path style="opacity:0.949" fill="#fea85f" d="M 340.5,-0.5 C 343.5,-0.5 346.5,-0.5 349.5,-0.5C 350.836,1.01027 352.003,2.67694 353,4.5C 353.5,12.4931 353.666,20.4931 353.5,28.5C 348.067,29.8021 342.734,29.8021 337.5,28.5C 337.334,20.16 337.5,11.8267 338,3.5C 338.662,2.01608 339.496,0.682751 340.5,-0.5 Z"/></g>
<g><path style="opacity:0.987" fill="#de646e" d="M 157.5,28.5 C 162.933,29.8021 168.266,29.8021 173.5,28.5C 228.167,28.5 282.833,28.5 337.5,28.5C 342.734,29.8021 348.067,29.8021 353.5,28.5C 355.833,28.5 358.167,28.5 360.5,28.5C 365.037,30.1977 368.537,33.1977 371,37.5C 371.667,74.5 371.667,111.5 371,148.5C 368.823,153.85 364.99,157.184 359.5,158.5C 280.833,158.667 202.166,158.5 123.5,158C 118,156.5 114.5,153 113,147.5C 112.333,111.5 112.333,75.5 113,39.5C 114.406,34.4268 117.572,30.9268 122.5,29C 134.162,28.5001 145.829,28.3335 157.5,28.5 Z"/></g>
<g><path style="opacity:1" fill="#cd5668" d="M 360.5,28.5 C 369.839,28.3335 379.173,28.5002 388.5,29C 393.428,30.9268 396.594,34.4268 398,39.5C 398.667,75.5 398.667,111.5 398,147.5C 396.5,153 393,156.5 387.5,158C 378.173,158.5 368.839,158.666 359.5,158.5C 364.99,157.184 368.823,153.85 371,148.5C 371.667,111.5 371.667,74.5 371,37.5C 368.537,33.1977 365.037,30.1977 360.5,28.5 Z"/></g>
<g><path style="opacity:0.926" fill="#6bbff8" d="M 55.5,45.5 C 58.1873,45.3359 60.854,45.5026 63.5,46C 67.5,48.6667 71.5,51.3333 75.5,54C 81.0804,59.4865 80.747,64.4865 74.5,69C 72.5,69.6667 70.5,69.6667 68.5,69C 63.5648,66.3943 58.8981,63.3943 54.5,60C 50.2676,54.8087 50.6009,49.9754 55.5,45.5 Z"/></g>
<g><path style="opacity:0.926" fill="#6cbef8" d="M 447.5,45.5 C 457.56,44.7162 461.06,49.0495 458,58.5C 453.107,62.3913 447.94,65.8913 442.5,69C 432.952,69.7466 429.785,65.5799 433,56.5C 437.991,52.9343 442.825,49.2677 447.5,45.5 Z"/></g>
<g><path style="opacity:1" fill="#dde9fb" d="M 215.5,70.5 C 214.512,75.6405 214.179,80.9738 214.5,86.5C 220.833,86.5 227.167,86.5 233.5,86.5C 236.845,87.3481 238.512,89.5148 238.5,93C 238.682,96.8196 237.015,99.3196 233.5,100.5C 227.167,100.5 220.833,100.5 214.5,100.5C 214.179,106.026 214.512,111.36 215.5,116.5C 222.508,116.334 229.508,116.5 236.5,117C 242.092,122.167 241.759,126.833 235.5,131C 225.167,131.667 214.833,131.667 204.5,131C 202.333,130.167 200.833,128.667 200,126.5C 199.022,103.745 199.355,81.0784 201,58.5C 201.833,57.6667 202.667,56.8333 203.5,56C 214.5,55.3333 225.5,55.3333 236.5,56C 241.986,61.0814 241.653,65.7481 235.5,70C 228.842,70.4996 222.175,70.6663 215.5,70.5 Z"/></g>
<g><path style="opacity:1" fill="#dde8f9" d="M 279.5,108.5 C 279.217,107.711 278.717,107.044 278,106.5C 277.5,112.825 277.334,119.158 277.5,125.5C 275.862,130.987 272.195,132.82 266.5,131C 264.951,129.786 263.785,128.286 263,126.5C 262.333,104.167 262.333,81.8333 263,59.5C 264.543,57.6217 266.376,56.1217 268.5,55C 275.833,54.3333 283.167,54.3333 290.5,55C 308.069,59.977 314.236,71.1437 309,88.5C 305.902,94.764 301.069,99.0974 294.5,101.5C 299.48,107.647 304.646,113.647 310,119.5C 312.677,128.156 309.511,131.989 300.5,131C 292.956,123.958 285.956,116.458 279.5,108.5 Z"/></g>
<g><path style="opacity:1" fill="#deabb9" d="M 278.5,70.5 C 278.5,75.8333 278.5,81.1667 278.5,86.5C 281.833,86.5 285.167,86.5 288.5,86.5C 285.038,87.4816 281.371,87.815 277.5,87.5C 277.178,81.642 277.511,75.9753 278.5,70.5 Z"/></g>
<g><path style="opacity:1" fill="#df646e" d="M 278.5,70.5 C 282.514,70.3345 286.514,70.5012 290.5,71C 295.224,73.4353 296.724,77.2686 295,82.5C 293.362,84.7337 291.195,86.067 288.5,86.5C 285.167,86.5 281.833,86.5 278.5,86.5C 278.5,81.1667 278.5,75.8333 278.5,70.5 Z"/></g>
<g><path style="opacity:0.926" fill="#6cbef8" d="M 45.5,85.5 C 52.8409,85.3337 60.1742,85.5003 67.5,86C 71.2765,88.9547 72.4432,92.788 71,97.5C 69.786,99.0488 68.286,100.215 66.5,101C 59.5,101.667 52.5,101.667 45.5,101C 38.889,95.798 38.889,90.6314 45.5,85.5 Z"/></g>
<g><path style="opacity:1" fill="#debac9" d="M 215.5,70.5 C 215.5,75.5 215.5,80.5 215.5,85.5C 221.69,85.1771 227.69,85.5104 233.5,86.5C 227.167,86.5 220.833,86.5 214.5,86.5C 214.179,80.9738 214.512,75.6405 215.5,70.5 Z"/></g>
<g><path style="opacity:0.933" fill="#6cbef8" d="M 443.5,85.5 C 451.611,85.0648 459.611,85.5648 467.5,87C 470.848,90.4186 471.348,94.252 469,98.5C 468.097,99.7014 466.931,100.535 465.5,101C 457.728,101.931 450.061,101.598 442.5,100C 438.326,94.8821 438.66,90.0488 443.5,85.5 Z"/></g>
<g><path style="opacity:1" fill="#dea2b0" d="M 233.5,100.5 C 227.69,101.49 221.69,101.823 215.5,101.5C 215.5,106.5 215.5,111.5 215.5,116.5C 214.512,111.36 214.179,106.026 214.5,100.5C 220.833,100.5 227.167,100.5 233.5,100.5 Z"/></g>
<g><path style="opacity:1" fill="#de9fad" d="M 279.5,108.5 C 278.833,114.167 278.167,119.833 277.5,125.5C 277.334,119.158 277.5,112.825 278,106.5C 278.717,107.044 279.217,107.711 279.5,108.5 Z"/></g>
<g><path style="opacity:0.928" fill="#6bbff8" d="M 67.5,117.5 C 77.5599,116.716 81.0599,121.049 78,130.5C 73.0928,134.371 67.9261,137.871 62.5,141C 52.9518,141.747 49.7851,137.58 53,128.5C 57.9915,124.934 62.8248,121.268 67.5,117.5 Z"/></g>
<g><path style="opacity:0.932" fill="#6bbff8" d="M 435.5,117.5 C 444.622,118.645 452.455,122.645 459,129.5C 460.663,138.167 457.163,142 448.5,141C 443.833,138 439.167,135 434.5,132C 430.268,126.809 430.601,121.975 435.5,117.5 Z"/></g>
<g><path style="opacity:0.982" fill="#5392f8" d="M 463.5,511.5 C 453.833,511.5 444.167,511.5 434.5,511.5C 434.667,417.833 434.5,324.166 434,230.5C 433.167,227 431,224.833 427.5,224C 372.834,223.5 318.168,223.333 263.5,223.5C 258.167,223.5 252.833,223.5 247.5,223.5C 192.832,223.333 138.166,223.5 83.5,224C 81.3762,225.122 79.5429,226.622 78,228.5C 76.5049,322.752 76.0049,417.085 76.5,511.5C 66.8333,511.5 57.1667,511.5 47.5,511.5C 46.4955,510.317 45.6622,508.984 45,507.5C 44.3333,406.5 44.3333,305.5 45,204.5C 45.5406,198.9 48.3739,195.066 53.5,193C 188.167,192.333 322.833,192.333 457.5,193C 462.626,195.066 465.459,198.9 466,204.5C 466.667,305.5 466.667,406.5 466,507.5C 465.338,508.984 464.504,510.317 463.5,511.5 Z"/></g>
<g><path style="opacity:1" fill="#dceafc" d="M 247.5,223.5 C 247.5,319.5 247.5,415.5 247.5,511.5C 190.5,511.5 133.5,511.5 76.5,511.5C 76.0049,417.085 76.5049,322.752 78,228.5C 79.5429,226.622 81.3762,225.122 83.5,224C 138.166,223.5 192.832,223.333 247.5,223.5 Z"/></g>
<g><path style="opacity:1" fill="#477698" d="M 247.5,223.5 C 252.833,223.5 258.167,223.5 263.5,223.5C 263.5,223.833 263.5,224.167 263.5,224.5C 263.5,320.167 263.5,415.833 263.5,511.5C 258.167,511.5 252.833,511.5 247.5,511.5C 247.5,415.5 247.5,319.5 247.5,223.5 Z"/></g>
<g><path style="opacity:1" fill="#dceafc" d="M 263.5,224.5 C 310.835,224.333 358.168,224.5 405.5,225C 406.667,226.167 407.833,227.333 409,228.5C 410.495,322.752 410.995,417.085 410.5,511.5C 361.5,511.5 312.5,511.5 263.5,511.5C 263.5,415.833 263.5,320.167 263.5,224.5 Z"/></g>
<g><path style="opacity:1" fill="#bdd8fc" d="M 263.5,224.5 C 263.5,224.167 263.5,223.833 263.5,223.5C 318.168,223.333 372.834,223.5 427.5,224C 431,224.833 433.167,227 434,230.5C 434.5,324.166 434.667,417.833 434.5,511.5C 426.5,511.5 418.5,511.5 410.5,511.5C 410.995,417.085 410.495,322.752 409,228.5C 407.833,227.333 406.667,226.167 405.5,225C 358.168,224.5 310.835,224.333 263.5,224.5 Z"/></g>
<g><path style="opacity:1" fill="#417295" d="M 157.5,266.5 C 181.383,264.51 196.883,274.843 204,297.5C 206.109,320.456 196.276,335.622 174.5,343C 150.957,345.783 135.457,335.949 128,313.5C 125.427,289.93 135.26,274.263 157.5,266.5 Z"/></g>
<g><path style="opacity:1" fill="#417295" d="M 336.5,266.5 C 360.383,264.51 375.883,274.843 383,297.5C 385.097,320.486 375.264,335.653 353.5,343C 329.957,345.783 314.457,335.949 307,313.5C 304.427,289.93 314.26,274.263 336.5,266.5 Z"/></g>
<g><path style="opacity:1" fill="#6bbdf6" d="M 160.5,281.5 C 174.777,280.05 184.277,286.05 189,299.5C 190.167,319.667 180.667,329.167 160.5,328C 143.636,321.102 138.802,309.269 146,292.5C 149.857,287.468 154.69,283.801 160.5,281.5 Z"/></g>
<g><path style="opacity:1" fill="#6bbef6" d="M 339.5,281.5 C 353.473,280.563 362.973,286.563 368,299.5C 368.629,319.872 358.795,329.372 338.5,328C 322.368,320.573 317.868,308.739 325,292.5C 328.857,287.468 333.69,283.801 339.5,281.5 Z"/></g>
<g><path style="opacity:1" fill="#417294" d="M 216.5,382.5 C 220.909,381.618 224.409,382.952 227,386.5C 227.667,399.167 227.667,411.833 227,424.5C 222.333,431.167 217.667,431.167 213,424.5C 212.333,411.833 212.333,399.167 213,386.5C 214.376,385.295 215.542,383.962 216.5,382.5 Z"/></g>
<g><path style="opacity:1" fill="#417194" d="M 287.5,382.5 C 291.909,381.618 295.409,382.952 298,386.5C 298.667,399.167 298.667,411.833 298,424.5C 293.333,431.167 288.667,431.167 284,424.5C 283.333,411.833 283.333,399.167 284,386.5C 285.376,385.295 286.542,383.962 287.5,382.5 Z"/></g>
</svg>
