<?xml version="1.0" encoding="UTF-8"?>
<svg version="1.1" xmlns="http://www.w3.org/2000/svg" width="512" height="512">
<path d="M0 0 C6.76366215 4.8514798 12.4295618 10.55366453 14 19 C14.08173345 21.24353937 14.10750277 23.48936892 14.09765625 25.734375 C14.09443359 27.02988281 14.09121094 28.32539063 14.08789062 29.66015625 C14.07953598 31.02343817 14.07107104 32.38671942 14.0625 33.75 C14.05748168 35.12890465 14.05291935 36.50781104 14.04882812 37.88671875 C14.03704093 41.25785659 14.02058635 44.62890628 14 48 C14.75901611 47.67765381 15.51803223 47.35530762 16.30004883 47.02319336 C19.54769535 45.79244134 22.21795054 45.62854965 25.6875 45.5625 C26.82574219 45.52253906 27.96398437 45.48257813 29.13671875 45.44140625 C39.0897374 46.88051815 45.45083553 52.7815163 52.125 59.875 C53.62511191 61.43729272 55.12769426 62.99721732 56.6328125 64.5546875 C57.36983398 65.31813477 58.10685547 66.08158203 58.86621094 66.86816406 C60.75345387 68.75367954 62.67869411 70.50103236 64.7109375 72.2265625 C71.6372063 78.15676299 77.89426111 84.84179541 84.30029297 91.32080078 C92.90358529 100.10160407 92.90358529 100.10160407 102.07836914 108.27111816 C104 110 104 110 105.69506836 112.02307129 C109.28583087 116.23322451 111.88015661 118.49172727 117.49804688 119 C119.57122416 119.04023642 121.64553512 119.03825032 123.71875 119 C125.366474 119.0163147 125.366474 119.0163147 127.04748535 119.03295898 C130.53266911 119.05901319 134.01489671 119.03033455 137.5 119 C139.87241096 119.00809586 142.24481257 119.01977672 144.6171875 119.03515625 C150.41199454 119.06493153 156.20536002 119.04985791 162 119 C161.99129883 118.25596924 161.98259766 117.51193848 161.97363281 116.74536133 C161.96348145 115.27232544 161.96348145 115.27232544 161.953125 113.76953125 C161.94442383 112.79862549 161.93572266 111.82771973 161.92675781 110.82739258 C162.11663181 103.49762318 164.36990774 97.61280611 169.640625 92.3671875 C177.44797006 85.34057694 184.95411385 85.56292564 195 86 C201.82922957 86.38658355 208.64080035 86.99372835 215.4543457 87.58886719 C217.46982116 87.76021811 219.48534073 87.93105087 221.50090027 88.10140991 C226.9308219 88.56223788 232.35999147 89.03139051 237.78898644 89.5029974 C241.18696566 89.79784549 244.5850892 90.09097018 247.98326683 90.38352203 C259.8544391 91.40570255 271.72496422 92.43507602 283.5949707 93.47070312 C294.63716283 94.43389698 305.68069075 95.38055205 316.72494823 96.3197391 C326.23372792 97.12913805 335.74142544 97.95050777 345.24838132 98.78105283 C350.91526345 99.27589426 356.58246315 99.76585347 362.25081825 100.24355316 C367.57668247 100.69276939 372.90104166 101.15689899 378.22462654 101.63234329 C380.17277554 101.80379836 382.12139565 101.96999827 384.07048416 102.13042068 C407.82273019 104.09284415 407.82273019 104.09284415 416.52734375 112.92578125 C421.27100675 119.60717396 421.43325532 125.61149671 421.38818359 133.57910156 C421.39606903 135.29978851 421.39606903 135.29978851 421.40411377 137.05523682 C421.41728128 140.8338394 421.40858913 144.6120184 421.3984375 148.390625 C421.4004586 151.01902345 421.40337034 153.64742134 421.40713501 156.27581787 C421.41258131 161.77669854 421.40542742 167.27745806 421.39111328 172.77832031 C421.37475631 179.13768182 421.38010164 185.49675521 421.3965925 191.85610986 C421.41183876 197.98093253 421.41023672 204.10562738 421.4014473 210.23046112 C421.3994426 212.83485708 421.40191397 215.43926037 421.40888596 218.04364777 C421.41647749 221.67545789 421.40492931 225.3067083 421.38818359 228.93847656 C421.39425629 230.02008057 421.40032898 231.10168457 421.40658569 232.21606445 C421.39812622 233.2029425 421.38966675 234.18982056 421.38095093 235.206604 C421.37981985 236.06491947 421.37868877 236.92323494 421.37752342 237.80755997 C420.90823156 240.53293858 420.21612921 241.37863913 418 243 C405.38400227 246.15399943 392.0042728 244 379 244 C379.33 269.08 379.66 294.16 380 320 C382.64 321.32 385.28 322.64 388 324 C394.6678612 329.61560613 398.22181455 335.85332001 399.30859375 344.4375 C399.72107942 352.43722205 397.21671454 359.45774966 392.375 365.8125 C386.88065881 371.55163857 380.95191528 374.17804096 372.9909668 374.5402832 C366.24862976 374.61107502 360.56166071 374.08611807 355 370 C354.113125 369.4225 353.22625 368.845 352.3125 368.25 C346.09459421 362.20014572 343.16850142 355.19490531 342.93359375 346.55859375 C343.37503698 338.01064748 346.62190844 330.86454995 352.875 325 C356.62844537 321.73340319 358.64392957 321.53030584 364 320 C364 310.43 364 300.86 364 291 C248.5 291 133 291 14 291 C14 300.57 14 310.14 14 320 C16.31 320.66 18.62 321.32 21 322 C27.56430973 325.99764191 31.50843305 331.82600552 34 339 C35.77473578 346.61268244 35.28768217 353.67090173 31.62109375 360.609375 C27.70625609 366.74958441 23.63365847 370.0952412 17 373 C16.34 373.33 15.68 373.66 15 374 C5.47557362 374.77886664 -3.0303702 374.99243157 -11 369 C-16.86305904 363.97816248 -20.20925516 357.11563496 -21.3828125 349.5234375 C-21.74303308 341.95880538 -19.80885873 334.69233924 -15.19921875 328.6328125 C-10.89219857 324.0665348 -8.12292408 322.62411032 -2 320 C-1.67 294.92 -1.34 269.84 -1 244 C-5.62 244 -10.24 244 -15 244 C-23.52433378 242.98519836 -31.1475951 240.52100409 -36.890625 233.78125 C-41.43416081 227.16445027 -43.29937729 221.78783662 -43.27415466 213.72138977 C-43.28200968 212.47599805 -43.28200968 212.47599805 -43.29002339 211.2054469 C-43.30501757 208.42508309 -43.30572842 205.64490341 -43.30639648 202.86450195 C-43.31401846 200.87015981 -43.32244603 198.8758206 -43.33161926 196.88148499 C-43.35356987 191.46392136 -43.36236417 186.04641419 -43.36744571 180.62881112 C-43.37108922 177.24249048 -43.37732933 173.85618462 -43.3844471 170.46986961 C-43.40894549 158.65121181 -43.42199392 146.83259791 -43.42553711 135.01391602 C-43.4291706 124.00589568 -43.45905176 112.99815447 -43.50094169 101.99021941 C-43.53566377 92.53355529 -43.5510859 83.07698356 -43.55178314 73.62025613 C-43.55257543 67.9748682 -43.56129177 62.32976446 -43.58978081 56.68444252 C-43.61599339 51.37130185 -43.61814858 46.05868031 -43.60212517 40.74550438 C-43.60031312 38.80010723 -43.60697926 36.85468002 -43.62294388 34.90934753 C-43.71193987 23.3565458 -43.46395072 14.69034842 -35.859375 5.37890625 C-25.73507979 -3.33923685 -12.38694877 -6.60050556 0 0 Z M14 244 C14 254.56 14 265.12 14 276 C129.5 276 245 276 364 276 C364 265.44 364 254.88 364 244 C248.5 244 133 244 14 244 Z " fill="#000000" transform="translate(67,138)"/>
<path d="M0 0 C1.729196 1.34866933 3.4381845 2.72368588 5.125 4.125 C5.97578125 4.82496094 6.8265625 5.52492188 7.703125 6.24609375 C26.27324746 22.22437397 36.97200881 43.74464901 39.125 68.125 C40.4914814 91.96573936 33.70422638 114.88910555 18.125 133.125 C17.48175781 133.92421875 16.83851563 134.7234375 16.17578125 135.546875 C2.16274041 152.22783304 -18.4894217 162.16578976 -39.875 165.125 C-65.87907106 167.14904308 -89.71941559 161.68615316 -110.0078125 144.51953125 C-128.21431719 128.59876531 -140.34274055 107.17859141 -142.0390625 82.76367188 C-143.23393717 57.29292673 -136.28855711 34.13464852 -119.4375 14.8125 C-117.93633201 13.23109716 -116.41549692 11.66811682 -114.875 10.125 C-114.11703125 9.35542969 -113.3590625 8.58585937 -112.578125 7.79296875 C-103.87113868 -0.55834003 -93.80750861 -5.98043578 -82.625 -10.25 C-82.00028809 -10.48871826 -81.37557617 -10.72743652 -80.73193359 -10.97338867 C-54.6283823 -20.3835998 -22.64330062 -15.98725304 0 0 Z " fill="#FCA901" transform="translate(250.875,14.875)"/>
<path d="M0 0 C32.57162716 3.04945167 65.16663487 5.76649742 97.77681541 8.36888695 C101.35885019 8.65495288 104.94078145 8.9423041 108.5227108 9.22968674 C110.95403441 9.42403918 113.38553375 9.61605451 115.81706047 9.80784607 C124.79295389 10.52284463 133.75282591 11.34180343 142.70925522 12.27114487 C147.35287689 12.74999234 151.98969844 13.14785263 156.64976311 13.44062805 C157.67714592 13.50637024 158.70452873 13.57211243 159.76304436 13.6398468 C161.80669062 13.76507676 163.85104095 13.87919151 165.89585686 13.9835968 C172.40073835 14.42277988 176.94628426 15.47486131 182.50913811 18.94844055 C195.45742447 38.37087009 184.50913811 65.60558535 184.50913811 88.94844055 C108.60913811 88.94844055 32.70913811 88.94844055 -45.49086189 88.94844055 C-45.49086189 2.94844055 -45.49086189 2.94844055 -40.49086189 -2.05155945 C-31.18247596 -6.70575241 -10.05788215 -0.94169725 0 0 Z " fill="#68A6FE" transform="translate(289.4908618927002,241.0515594482422)"/>
<path d="M0 0 C4.27587431 2.34679425 7.2013651 5.46578926 9 10 C9.25053978 13.29493809 9.25053978 13.29493809 9.2515564 17.29432678 C9.25452654 18.03066721 9.25749667 18.76700764 9.26055682 19.52566141 C9.26819755 21.99383055 9.26170262 24.46176177 9.25537109 26.92993164 C9.25812088 28.6990322 9.26180071 30.46813153 9.26634216 32.23722839 C9.27445558 36.04699941 9.2766223 39.85671174 9.27439499 43.66649055 C9.27156497 49.68716873 9.28590126 55.70772926 9.30337524 61.7283783 C9.35043506 78.84860475 9.37435249 95.96882308 9.38085938 113.08911133 C9.38460472 122.54429893 9.40258991 131.9993534 9.43595374 141.45448393 C9.45621882 147.44326062 9.45851342 153.43169515 9.44767356 159.42049229 C9.44507373 163.14094269 9.45903428 166.86119217 9.47775459 170.58159065 C9.48309461 172.31060048 9.48154907 174.0396469 9.47271919 175.76864243 C9.46165876 178.12379835 9.47495665 180.47758541 9.49447632 182.83265686 C9.49556585 184.1520781 9.49665539 185.47149935 9.49777794 186.83090305 C9.69006794 189.9964838 9.69006794 189.9964838 11.60824049 191.67402101 C14.80083392 193.44397815 17.12345916 193.37908384 20.7703743 193.38476086 C21.4537159 193.38991076 22.1370575 193.39506067 22.84110641 193.40036663 C25.14175029 193.41403387 27.44182768 193.40628742 29.74249268 193.39872742 C31.40411931 193.40416417 33.06574209 193.41091459 34.72735858 193.41886932 C39.30179868 193.43695038 43.87607691 193.43633076 48.45054436 193.43273985 C53.38033568 193.43211757 58.31007194 193.4487213 63.23983765 193.46325684 C71.78378961 193.48607999 80.3277007 193.49793435 88.87168121 193.50238609 C101.22490594 193.50883839 113.57805666 193.53175953 125.93125162 193.55872939 C145.97238651 193.60203522 166.01351831 193.63198028 186.0546875 193.65356445 C205.52540618 193.67456278 224.9960994 193.70182785 244.46679688 193.73754883 C246.26637887 193.74084707 246.26637887 193.74084707 248.10231605 193.74421193 C254.12083035 193.7552813 260.13934441 193.76647416 266.15785837 193.77772844 C316.10521664 193.87096728 366.05258899 193.94231841 416 194 C416 201.59 416 209.18 416 217 C362.10406803 217.06840805 308.20814156 217.12151367 254.3121747 217.15319599 C247.95217564 217.1569482 241.59217667 217.16083116 235.23217773 217.16479492 C233.96599324 217.16558185 232.69980875 217.16636878 231.39525504 217.16717956 C210.88168218 217.18024066 190.36813449 217.20389838 169.85457658 217.23145839 C148.81258344 217.259493 127.7706035 217.27617214 106.72859246 217.28226548 C93.74001341 217.28638596 80.7515055 217.29940961 67.76294834 217.3237494 C58.86146368 217.33958258 49.9600159 217.34440584 41.05851816 217.34050413 C35.91950094 217.33857882 30.78060821 217.34157205 25.64161301 217.35761642 C20.93802219 217.37219445 16.23463981 217.37296596 11.53103948 217.36269668 C9.82836482 217.3614271 8.12567724 217.36525038 6.42302804 217.37464955 C4.10946362 217.38667977 1.79665273 217.38020567 -0.51690006 217.36914349 C-1.80225338 217.37028265 -3.0876067 217.37142181 -4.41191012 217.37259549 C-9.67745411 216.82580932 -13.59996993 215.43687296 -17.375 211.5625 C-20.31181614 206.93136686 -20.14850401 202.53019959 -20.14717102 197.16313171 C-20.15084771 196.36836026 -20.1545244 195.57358882 -20.1583125 194.75473338 C-20.16933519 192.08867964 -20.17319075 189.4226649 -20.17700195 186.7565918 C-20.18326757 184.84620032 -20.18991446 182.93581007 -20.19691467 181.02542114 C-20.21794217 174.75002896 -20.22831443 168.47463656 -20.23828125 162.19921875 C-20.24232901 160.03866882 -20.24644593 157.87811902 -20.25063133 155.71756935 C-20.26967849 145.5690499 -20.28391169 135.42053772 -20.2922433 125.27200383 C-20.30202056 113.55611371 -20.3283549 101.84041228 -20.36874419 90.12458867 C-20.39889245 81.0688456 -20.41371088 72.01315667 -20.41702431 62.95736438 C-20.41937587 57.54850919 -20.42835047 52.13985569 -20.45348549 46.73105431 C-20.47674915 41.64289165 -20.48100624 36.55506376 -20.47072411 31.46686172 C-20.47022826 29.60083338 -20.47656318 27.73478865 -20.49028015 25.86881065 C-20.50797985 23.3180792 -20.5009029 20.76855173 -20.48774719 18.21781921 C-20.49871644 17.48220267 -20.50968568 16.74658612 -20.52098733 15.98867816 C-20.45259545 10.48336423 -19.004235 7.44886686 -16 3 C-11.63191178 -1.1033556 -5.64900901 -1.01019474 0 0 Z " fill="#956756" transform="translate(58,150)"/>
<path d="M0 0 C5.05712737 2.96203174 9.147497 6.71857879 13.375 10.75 C14.09034912 11.42667725 14.80569824 12.10335449 15.54272461 12.80053711 C23.38327473 20.27153789 31.01448389 27.9564125 38.62451172 35.66113281 C43.26649658 40.34995823 47.94957316 44.9038031 52.96948242 49.19213867 C57.29939829 53.04725794 61.3072005 57.24746776 65.375 61.375 C67.1513414 63.17675401 68.92987339 64.97635183 70.7109375 66.7734375 C71.48743652 67.56153809 72.26393555 68.34963867 73.06396484 69.16162109 C76.21131804 72.15021751 78.21247083 72.13983986 82.45947266 72.20532227 C83.61648682 72.22550415 84.77350098 72.24568604 85.96557617 72.26647949 C87.18607666 72.28295532 88.40657715 72.29943115 89.6640625 72.31640625 C91.34181763 72.34438293 91.34181763 72.34438293 93.0534668 72.3729248 C97.24389517 72.44138103 101.4344575 72.50142835 105.625 72.5625 C114.98875 72.706875 124.3525 72.85125 134 73 C134 92.47 134 111.94 134 132 C84.83 132 35.66 132 -15 132 C-15.103125 111.66375 -15.20625 91.3275 -15.3125 70.375 C-15.35802002 63.95595215 -15.40354004 57.5369043 -15.45043945 50.92333984 C-15.47302246 43.0793457 -15.47302246 43.0793457 -15.47721863 39.40615845 C-15.48690753 36.16979693 -15.51509422 32.93411344 -15.54908305 29.69793355 C-15.57582102 26.48662859 -15.56920068 23.27536167 -15.56762695 20.06396484 C-15.58561749 18.92387655 -15.60360804 17.78378826 -15.62214375 16.60915184 C-15.56566958 8.00427451 -15.56566958 8.00427451 -12.58561707 4.3319397 C-8.40155867 0.55838329 -5.72625801 -0.68715096 0 0 Z " fill="#D4E2F1" transform="translate(96,198)"/>
<path d="M0 0 C0.91471573 -0.00619858 1.82943146 -0.01239716 2.77186584 -0.01878357 C4.70426368 -0.02587983 6.63672268 -0.02271109 8.5690918 -0.01000977 C11.52181907 0.00384368 14.47136913 -0.03020119 17.42382812 -0.06835938 C19.30338619 -0.06931073 21.18294821 -0.06745089 23.0625 -0.0625 C23.94284409 -0.07575821 24.82318817 -0.08901642 25.73020935 -0.10267639 C30.06986156 -0.03695569 32.05152606 0.17303245 35.66308594 2.77441406 C37.79210684 5.84703938 38.19361611 7.18457892 38.0859375 10.8671875 C38.06982422 11.84365234 38.05371094 12.82011719 38.03710938 13.82617188 C37.99521484 14.83357422 37.95332031 15.84097656 37.91015625 16.87890625 C37.88759766 17.90564453 37.86503906 18.93238281 37.84179688 19.99023438 C37.783032 22.51712415 37.70093474 25.0410088 37.59765625 27.56640625 C38.23791748 27.54545898 38.87817871 27.52451172 39.5378418 27.50292969 C42.453452 27.41951341 45.36881077 27.36766656 48.28515625 27.31640625 C49.79625977 27.26613281 49.79625977 27.26613281 51.33789062 27.21484375 C52.31435547 27.20195313 53.29082031 27.1890625 54.296875 27.17578125 C55.19237061 27.15483398 56.08786621 27.13388672 57.01049805 27.11230469 C60.69525748 27.75905873 62.15287388 28.71073609 64.59765625 31.56640625 C65.32870445 34.78544755 65.2746234 37.9334143 65.2265625 41.22265625 C65.22897446 42.1619397 65.23138641 43.10122314 65.23387146 44.06896973 C65.23289299 46.05269599 65.2194993 48.03644955 65.19458008 50.02001953 C65.16027433 53.05595684 65.17391981 56.08898312 65.19335938 59.125 C65.1864608 61.0533978 65.17678831 62.9817881 65.1640625 64.91015625 C65.1715023 66.27122498 65.1715023 66.27122498 65.17909241 67.65979004 C65.10671868 71.53377509 65.06262672 73.85954944 62.90112305 77.14550781 C60.09095448 78.87896633 58.46373024 79.03009678 55.17578125 78.95703125 C53.63857422 78.93769531 53.63857422 78.93769531 52.0703125 78.91796875 C51.00683594 78.88445312 49.94335938 78.8509375 48.84765625 78.81640625 C47.76871094 78.79835938 46.68976563 78.7803125 45.578125 78.76171875 C42.91706837 78.7146204 40.25781371 78.64886225 37.59765625 78.56640625 C37.63693237 79.57223755 37.63693237 79.57223755 37.67700195 80.59838867 C37.78122863 83.64998753 37.84606248 86.70121167 37.91015625 89.75390625 C37.95205078 90.80900391 37.99394531 91.86410156 38.03710938 92.95117188 C38.05322266 93.97275391 38.06933594 94.99433594 38.0859375 96.046875 C38.11212158 96.98426514 38.13830566 97.92165527 38.1652832 98.88745117 C37.32531293 102.85174958 35.87017955 104.20927775 32.59765625 106.56640625 C29.49616925 107.27848681 26.48834204 107.26800225 23.31640625 107.23046875 C22.42530151 107.23525238 21.53419678 107.24003601 20.61608887 107.2449646 C18.73671701 107.24835897 16.85728575 107.23918887 14.97802734 107.21826172 C12.10640427 107.19148781 9.23868946 107.21802336 6.3671875 107.25 C4.53775182 107.24669582 2.70831856 107.24028941 0.87890625 107.23046875 C0.023573 107.2405899 -0.83176025 107.25071106 -1.7130127 107.26113892 C-5.97852916 107.17755684 -7.89922652 106.92879082 -11.4519043 104.36987305 C-13.63810621 101.22753276 -13.99612431 99.82375045 -13.890625 96.046875 C-13.87451172 95.02529297 -13.85839844 94.00371094 -13.84179688 92.95117188 C-13.79990234 91.89607422 -13.75800781 90.84097656 -13.71484375 89.75390625 C-13.69228516 88.67947266 -13.66972656 87.60503906 -13.64648438 86.49804688 C-13.58769973 83.85273775 -13.50558332 81.21029212 -13.40234375 78.56640625 C-14.10842773 78.59259033 -14.81451172 78.61877441 -15.54199219 78.64575195 C-18.74521583 78.74976982 -21.94808435 78.81474774 -25.15234375 78.87890625 C-26.26351562 78.92080078 -27.3746875 78.96269531 -28.51953125 79.00585938 C-30.12441406 79.0300293 -30.12441406 79.0300293 -31.76171875 79.0546875 C-33.23850098 79.09396362 -33.23850098 79.09396362 -34.74511719 79.1340332 C-37.40234375 78.56640625 -37.40234375 78.56640625 -39.72167969 76.60229492 C-42.00612667 72.47575537 -41.97871777 69.14876156 -41.93359375 64.50390625 C-41.93742065 63.63499756 -41.94124756 62.76608887 -41.94519043 61.87084961 C-41.94790554 60.03856239 -41.94057242 58.20623615 -41.92382812 56.37402344 C-41.90241173 53.57528978 -41.9236423 50.77912292 -41.94921875 47.98046875 C-41.9465754 46.19660894 -41.94145027 44.41275072 -41.93359375 42.62890625 C-41.94169067 41.79544678 -41.9497876 40.9619873 -41.95812988 40.10327148 C-41.89563624 36.21588731 -41.63714913 33.9905499 -39.72167969 30.53051758 C-36.84379833 28.09340647 -35.49402352 27.97886158 -31.76171875 28.078125 C-30.15683594 28.10229492 -30.15683594 28.10229492 -28.51953125 28.12695312 C-27.40835938 28.16884766 -26.2971875 28.21074219 -25.15234375 28.25390625 C-24.02570313 28.27646484 -22.8990625 28.29902344 -21.73828125 28.32226562 C-18.95829143 28.38116371 -16.18099043 28.46336424 -13.40234375 28.56640625 C-13.42329102 27.86032227 -13.44423828 27.15423828 -13.46582031 26.42675781 C-13.54903673 23.22345249 -13.6010216 20.02037462 -13.65234375 16.81640625 C-13.68585938 15.70523438 -13.719375 14.5940625 -13.75390625 13.44921875 C-13.76679688 12.37929688 -13.7796875 11.309375 -13.79296875 10.20703125 C-13.81391602 9.22250977 -13.83486328 8.23798828 -13.85644531 7.22363281 C-13.40234375 4.56640625 -13.40234375 4.56640625 -11.96557617 2.24926758 C-8.09574598 -0.29142577 -4.53832745 -0.02551034 0 0 Z " fill="#050200" transform="translate(187.40234375,36.43359375)"/>
<path d="M0 0 C1.729196 1.34866933 3.4381845 2.72368588 5.125 4.125 C5.97578125 4.82496094 6.8265625 5.52492188 7.703125 6.24609375 C26.27324746 22.22437397 36.97200881 43.74464901 39.125 68.125 C40.4914814 91.96573936 33.70422638 114.88910555 18.125 133.125 C17.48175781 133.92421875 16.83851563 134.7234375 16.17578125 135.546875 C2.16274041 152.22783304 -18.4894217 162.16578976 -39.875 165.125 C-65.87907106 167.14904308 -89.71941559 161.68615316 -110.0078125 144.51953125 C-128.21431719 128.59876531 -140.34274055 107.17859141 -142.0390625 82.76367188 C-143.23393717 57.29292673 -136.28855711 34.13464852 -119.4375 14.8125 C-117.93633201 13.23109716 -116.41549692 11.66811682 -114.875 10.125 C-114.11703125 9.35542969 -113.3590625 8.58585937 -112.578125 7.79296875 C-103.87113868 -0.55834003 -93.80750861 -5.98043578 -82.625 -10.25 C-82.00028809 -10.48871826 -81.37557617 -10.72743652 -80.73193359 -10.97338867 C-54.6283823 -20.3835998 -22.64330062 -15.98725304 0 0 Z M-100.875 17.125 C-101.84566406 17.8984375 -102.81632812 18.671875 -103.81640625 19.46875 C-116.40987525 29.99032645 -125.6760416 47.93748854 -127.15893555 64.24804688 C-127.27558156 67.52507849 -127.28477792 70.7837147 -127.25 74.0625 C-127.26160156 75.15240234 -127.27320312 76.24230469 -127.28515625 77.36523438 C-127.21213178 97.84859691 -118.58126628 115.11095661 -104.6875 129.8125 C-90.37741348 143.66798432 -70.89054745 151.70770594 -50.96020508 151.47631836 C-29.60576344 150.74365551 -9.7246645 142.25384267 5.00390625 126.6875 C16.87437528 112.3467492 24.57636298 95.59260946 24.375 76.8125 C24.36750732 75.88824219 24.36001465 74.96398437 24.35229492 74.01171875 C24.01329754 52.43709176 16.20670623 35.488847 1.125 20.125 C0.44953125 19.42503906 -0.2259375 18.72507812 -0.921875 18.00390625 C-16.31947156 3.15622386 -37.3726812 -1.50349444 -58.171875 -1.1484375 C-74.08362427 -0.49461867 -88.95707207 6.87738773 -100.875 17.125 Z " fill="#010100" transform="translate(250.875,14.875)"/>
<path d="M0 0 C1.491209 2.982418 1.12629779 6.02342585 1.10679626 9.29264832 C1.10623956 10.0530425 1.10568285 10.81343668 1.10510927 11.5968731 C1.10206023 14.158608 1.09186843 16.72026625 1.08178711 19.28198242 C1.07823275 21.11326008 1.07514628 22.94453869 1.07249451 24.77581787 C1.06593143 28.72693704 1.05636397 32.6780338 1.04459953 36.62914085 C1.02634327 42.8775369 1.01671699 49.12592741 1.00868225 55.37434387 C0.98450444 73.1451762 0.94869173 90.91597527 0.90405273 108.68676758 C0.87948984 118.49569355 0.86213586 128.30460635 0.85249335 138.11355859 C0.8459529 144.32361593 0.830398 150.53356496 0.80817592 156.74358499 C0.79643223 160.61164766 0.79307769 164.4796841 0.79207802 168.34776306 C0.78993325 170.13960846 0.7843509 171.93145361 0.7750473 173.72327614 C0.76282163 176.17308683 0.76302054 178.62260124 0.76622009 181.07243347 C0.75971229 181.77828667 0.75320449 182.48413988 0.74649948 183.21138257 C0.77928224 189.68045342 1.82129363 195.33427109 6.1875 200.25 C6.73792969 200.89453125 7.28835937 201.5390625 7.85546875 202.203125 C12.885114 206.41739971 17.87216254 207.37499569 24.29569149 207.38476086 C24.99937836 207.38991076 25.70306523 207.39506067 26.42807594 207.40036663 C28.77986261 207.41395418 31.13108837 207.40630933 33.4828949 207.39872742 C35.18835857 207.40416812 36.89381848 207.4109202 38.59927231 207.41886932 C43.28094926 207.4369001 47.96246763 207.43633688 52.64417112 207.43273985 C57.69456445 207.43211628 62.74490445 207.44873347 67.79527283 207.46325684 C76.5437961 207.48605527 85.29227951 207.4979301 94.04083061 207.50238609 C106.68975735 207.50884449 119.33861202 207.53177646 131.98750973 207.55872939 C152.50948529 207.6020113 173.03145781 207.63197004 193.5534668 207.65356445 C213.48870332 207.67456993 233.42391502 207.70184127 253.35913086 207.73754883 C255.20233553 207.74084707 255.20233553 207.74084707 257.08277666 207.74421193 C263.24731976 207.75528148 269.41186264 207.76647431 275.57640541 207.77772844 C326.71758165 207.87093343 377.85877198 207.94252219 429 208 C429 210.64 429 213.28 429 216 C375.10406846 216.06863638 321.20814133 216.12151367 267.3121747 216.15319599 C260.95217564 216.1569482 254.59217667 216.16083116 248.23217773 216.16479492 C246.96599324 216.16558185 245.69980875 216.16636878 244.39525504 216.16717956 C223.88168218 216.18024066 203.36813449 216.20389838 182.85457658 216.23145839 C161.81258344 216.259493 140.7706035 216.27617214 119.72859246 216.28226548 C106.74001341 216.28638596 93.7515055 216.29940961 80.76294834 216.3237494 C71.86146368 216.33958258 62.9600159 216.34440584 54.05851816 216.34050413 C48.91950094 216.33857882 43.78060821 216.34157205 38.64161301 216.35761642 C33.93802219 216.37219445 29.23463981 216.37296596 24.53103948 216.36269668 C22.82836482 216.3614271 21.12567724 216.36525038 19.42302804 216.37464955 C17.10946362 216.38667977 14.79665273 216.38020567 12.48309994 216.36914349 C11.19774662 216.37028265 9.9123933 216.37142181 8.58808988 216.37259549 C3.32254589 215.82580932 -0.59996993 214.43687296 -4.375 210.5625 C-7.31181614 205.93136686 -7.14850401 201.53019959 -7.14717102 196.16313171 C-7.15084771 195.36836026 -7.1545244 194.57358882 -7.1583125 193.75473338 C-7.16933519 191.08867964 -7.17319075 188.4226649 -7.17700195 185.7565918 C-7.18326757 183.84620032 -7.18991446 181.93581007 -7.19691467 180.02542114 C-7.21794217 173.75002896 -7.22831443 167.47463656 -7.23828125 161.19921875 C-7.24232901 159.03866882 -7.24644593 156.87811902 -7.25063133 154.71756935 C-7.26967849 144.5690499 -7.28391169 134.42053772 -7.2922433 124.27200383 C-7.30202056 112.55611371 -7.3283549 100.84041228 -7.36874419 89.12458867 C-7.39889245 80.0688456 -7.41371088 71.01315667 -7.41702431 61.95736438 C-7.41937587 56.54850919 -7.42835047 51.13985569 -7.45348549 45.73105431 C-7.47674915 40.64289165 -7.48100624 35.55506376 -7.47072411 30.46686172 C-7.47022826 28.60083338 -7.47656318 26.73478865 -7.49028015 24.86881065 C-7.50797985 22.3180792 -7.5009029 19.76855173 -7.48774719 17.21781921 C-7.49871644 16.48220267 -7.50968568 15.74658612 -7.52098733 14.98867816 C-7.45256831 9.48117993 -6.06486535 6.4209134 -3 2 C-2.01 1.34 -1.02 0.68 0 0 Z " fill="#815545" transform="translate(45,151)"/>
<path d="M0 0 C7.59 0 15.18 0 23 0 C23.02578125 1.69769531 23.0515625 3.39539062 23.078125 5.14453125 C23.13439544 7.36721359 23.191743 9.58986884 23.25 11.8125 C23.26417969 12.93205078 23.27835938 14.05160156 23.29296875 15.20507812 C23.32519531 16.27822266 23.35742188 17.35136719 23.390625 18.45703125 C23.41157227 19.44678955 23.43251953 20.43654785 23.45410156 21.45629883 C23.78961055 24.0913144 23.78961055 24.0913144 25.71289062 25.81445312 C28.38054801 27.19726101 30.20722483 27.42462863 33.203125 27.51171875 C34.52812012 27.56138794 34.52812012 27.56138794 35.87988281 27.61206055 C36.99202148 27.63695557 38.10416016 27.66185059 39.25 27.6875 C42.7975 27.790625 46.345 27.89375 50 28 C50 35.26 50 42.52 50 50 C48.37449219 50.03738281 46.74898438 50.07476562 45.07421875 50.11328125 C42.94528904 50.17893106 40.81638383 50.24537874 38.6875 50.3125 C37.61564453 50.33505859 36.54378906 50.35761719 35.43945312 50.38085938 C34.41142578 50.41630859 33.38339844 50.45175781 32.32421875 50.48828125 C31.37635498 50.51446533 30.42849121 50.54064941 29.4519043 50.56762695 C26.99271522 50.83422559 26.99271522 50.83422559 25.19921875 52.18554688 C23.54577497 54.68725578 23.5672812 56.55677079 23.48828125 59.54296875 C23.45283203 60.61611328 23.41738281 61.68925781 23.38085938 62.79492188 C23.35830078 63.91447266 23.33574219 65.03402344 23.3125 66.1875 C23.27833984 67.31865234 23.24417969 68.44980469 23.20898438 69.61523438 C23.1264443 72.40980557 23.06154765 75.20488768 23 78 C15.41 78 7.82 78 0 78 C-0.02578125 76.30230469 -0.0515625 74.60460937 -0.078125 72.85546875 C-0.13439544 70.63278641 -0.191743 68.41013116 -0.25 66.1875 C-0.26417969 65.06794922 -0.27835938 63.94839844 -0.29296875 62.79492188 C-0.32519531 61.72177734 -0.35742188 60.64863281 -0.390625 59.54296875 C-0.41157227 58.55321045 -0.43251953 57.56345215 -0.45410156 56.54370117 C-0.78961055 53.9086856 -0.78961055 53.9086856 -2.71289062 52.18554688 C-5.38054801 50.80273899 -7.20722483 50.57537137 -10.203125 50.48828125 C-11.08645508 50.45516846 -11.96978516 50.42205566 -12.87988281 50.38793945 C-13.99202148 50.36304443 -15.10416016 50.33814941 -16.25 50.3125 C-19.7975 50.209375 -23.345 50.10625 -27 50 C-27 42.74 -27 35.48 -27 28 C-16.25 27.75 -16.25 27.75 -12.87988281 27.70214844 C-11.5548877 27.65622559 -11.5548877 27.65622559 -10.203125 27.609375 C-9.30239258 27.58842773 -8.40166016 27.56748047 -7.47363281 27.54589844 C-4.18437428 26.82000206 -2.99962959 25.68593348 -1 23 C-0.36470352 20.40584335 -0.36470352 20.40584335 -0.390625 17.578125 C-0.36000977 16.65418945 -0.32939453 15.73025391 -0.29785156 14.77832031 C-0.28206055 13.61397461 -0.26626953 12.44962891 -0.25 11.25 C-0.1675 7.5375 -0.085 3.825 0 0 Z " fill="#F84354" transform="translate(188,51)"/>
<path d="M0 0 C0.33 0 0.66 0 1 0 C1 39.93 1 79.86 1 121 C48.52 121 96.04 121 145 121 C145 104.17 145 87.34 145 70 C127.18 70 109.36 70 91 70 C91 69.67 91 69.34 91 69 C109.15 69 127.3 69 146 69 C146 88.47 146 107.94 146 128 C96.83 128 47.66 128 -3 128 C-3.061875 107.6225 -3.12375 87.245 -3.1875 66.25 C-3.21481201 59.81274414 -3.24212402 53.37548828 -3.27026367 46.74316406 C-3.28381348 38.89013672 -3.28381348 38.89013672 -3.28633118 35.215271 C-3.29094204 32.64527148 -3.30038339 30.07571192 -3.31672668 27.50579834 C-3.34113546 23.61613579 -3.34172009 19.72665668 -3.34057617 15.83691406 C-3.3513705 14.68962955 -3.36216482 13.54234505 -3.37328625 12.36029434 C-3.36708751 10.79027475 -3.36708751 10.79027475 -3.36076355 9.1885376 C-3.36352893 8.27780613 -3.36629431 7.36707466 -3.36914349 6.42874527 C-2.92910757 3.53356981 -1.96399924 2.13714788 0 0 Z " fill="#B2C8E0" transform="translate(84,202)"/>
<path d="M0 0 C0.66 0.33 1.32 0.66 2 1 C1.31035156 1.53367187 0.62070313 2.06734375 -0.08984375 2.6171875 C-17.34284109 16.29651872 -30.55080455 34.66080665 -33.75 56.921875 C-35.77950559 81.9101626 -30.7541052 104.22886527 -14.578125 123.953125 C-9.53449203 129.68595005 -4.23261621 134.58899384 2 139 C1.34 139.33 0.68 139.66 0 140 C-2.26471206 138.958963 -4.35144008 137.87243227 -6.5 136.625 C-7.1285791 136.26140381 -7.7571582 135.89780762 -8.40478516 135.52319336 C-14.26975526 132.01961002 -19.20563034 127.86967389 -24 123 C-24.70769531 122.29101562 -25.41539062 121.58203125 -26.14453125 120.8515625 C-41.83807876 104.22780472 -45.62323959 84.63191236 -45.33984375 62.58984375 C-44.73456733 44.92632069 -36.07991115 28.65789733 -24 16 C-17.06155733 9.56949603 -9.08784938 3.02928313 0 0 Z " fill="#E89B00" transform="translate(169,20)"/>
<path d="M0 0 C32.57162716 3.04945167 65.16663487 5.76649742 97.77681541 8.36888695 C101.35885019 8.65495288 104.94078145 8.9423041 108.5227108 9.22968674 C110.95403441 9.42403918 113.38553375 9.61605451 115.81706047 9.80784607 C124.7896094 10.52251937 133.74637421 11.34133446 142.6999855 12.26496506 C150.50868038 13.06828457 158.32644064 13.64510844 166.15952873 14.15937805 C167.69190178 14.27152649 167.69190178 14.27152649 169.25523186 14.38594055 C170.59605827 14.47681946 170.59605827 14.47681946 171.96397209 14.5695343 C174.71683682 14.97936126 176.97289984 15.82160372 179.50913811 16.94844055 C176.0226823 18.06574611 173.05526401 17.92381446 169.42320061 17.64375305 C167.65589592 17.51033508 167.65589592 17.51033508 165.85288811 17.3742218 C164.62570061 17.27496399 163.39851311 17.17570618 162.13413811 17.07344055 C160.91468498 16.98191711 159.69523186 16.89039368 158.43882561 16.7960968 C153.0682341 16.37981733 147.82241964 15.83450126 142.50913811 14.94844055 C140.68450629 14.77957578 138.85727415 14.63707925 137.02866936 14.51875305 C135.96342033 14.44712952 134.89817131 14.37550598 133.80064201 14.30171204 C132.65257072 14.22638245 131.50449944 14.15105286 130.32163811 14.07344055 C119.52933404 13.33355803 108.74776249 12.50318215 97.9691906 11.58485413 C96.4207865 11.45295191 94.87230453 11.3219605 93.32374382 11.19190979 C91.13790796 11.0079593 88.95239521 10.8205702 86.76695061 10.6320343 C85.5102758 10.52431702 84.253601 10.41659973 82.95884514 10.30561829 C79.77567864 9.97603778 76.66283823 9.48284957 73.50913811 8.94844055 C72.14663493 8.82818322 70.78167076 8.73159906 69.41538811 8.66719055 C68.69480217 8.62980774 67.97421623 8.59242493 67.23179436 8.5539093 C66.49831779 8.51910461 65.76484123 8.48429993 65.00913811 8.44844055 C60.08666987 8.21486122 55.37496922 7.76476889 50.50913811 6.94844055 C47.90301525 6.77543134 45.30495598 6.62950045 42.69663811 6.51094055 C36.05475133 6.16958923 29.50646662 5.52094199 22.91099358 4.68135071 C17.0224918 3.95466132 11.14221649 3.55960321 5.21616936 3.29023743 C2.32824352 3.15204566 -0.47815355 2.95059066 -3.33070564 2.4679718 C-7.82796448 1.72862023 -12.31898414 1.46100673 -16.86586189 1.19844055 C-17.77336189 1.13012024 -18.68086189 1.06179993 -19.61586189 0.9914093 C-25.72601704 0.64804323 -29.95074155 1.28694937 -35.49086189 3.94844055 C-54.83801426 24.28775458 -41.12632981 59.87946985 -41.49086189 87.94844055 C33.08913811 87.94844055 107.66913811 87.94844055 184.50913811 87.94844055 C184.50913811 88.27844055 184.50913811 88.60844055 184.50913811 88.94844055 C108.60913811 88.94844055 32.70913811 88.94844055 -45.49086189 88.94844055 C-45.49086189 2.94844055 -45.49086189 2.94844055 -40.49086189 -2.05155945 C-31.18247596 -6.70575241 -10.05788215 -0.94169725 0 0 Z " fill="#5789D2" transform="translate(289.4908618927002,241.0515594482422)"/>
<path d="M0 0 C3.60003622 1.9102233 5.74840078 4.62260117 8 8 C8.45681556 13.57314983 8.24354906 17.24279471 5 22 C1.12013072 25.42872169 -1.96663654 26.66819797 -7.04296875 26.38671875 C-11.36748974 25.53217269 -14.08422322 23.06840624 -16.875 19.8125 C-18.47936151 15.80159623 -18.68251468 12.26009163 -18 8 C-13.99605739 0.13511273 -8.40207457 -1.32524835 0 0 Z " fill="#67A3FA" transform="translate(79,472)"/>
<path d="M0 0 C3.20384041 1.29516953 4.5905657 2.51997358 6.8125 5.125 C8.48208128 9.16714416 8.68440348 12.68825807 8 17 C5.80794622 21.38410756 3.56884617 24.13092657 -1 26 C-5.78843042 26.53204782 -7.98517492 26.49783872 -12.3125 24.375 C-16.53675565 20.64193687 -17.7698918 17.61075742 -18.5625 12.0625 C-18.42057539 7.72127676 -16.40539639 5.42021501 -13.5078125 2.34765625 C-9.66941728 -1.08303378 -4.86896785 -0.4223868 0 0 Z " fill="#67A4FA" transform="translate(443,472)"/>
<path d="M0 0 C26.68185344 1.67456815 53.39414424 3.46141506 79.98120117 6.30078125 C84.50807726 6.77745132 89.03430252 7.1632401 93.57421875 7.49609375 C94.71213867 7.58044678 95.85005859 7.6647998 97.02246094 7.75170898 C99.24525999 7.91331798 101.46856677 8.06813455 103.69238281 8.21508789 C104.70010742 8.28848389 105.70783203 8.36187988 106.74609375 8.4375 C107.63997803 8.49808594 108.5338623 8.55867187 109.45483398 8.62109375 C112.20769871 9.03092071 114.46376174 9.87316317 117 11 C113.51354419 12.11730555 110.5461259 11.9753739 106.9140625 11.6953125 C105.73585938 11.60636719 104.55765625 11.51742188 103.34375 11.42578125 C102.1165625 11.32652344 100.889375 11.22726562 99.625 11.125 C98.40554688 11.03347656 97.18609375 10.94195312 95.9296875 10.84765625 C90.55909599 10.43137678 85.31328153 9.88606071 80 9 C78.17536819 8.83113522 76.34813604 8.6886387 74.51953125 8.5703125 C72.92298706 8.46299805 72.92298706 8.46299805 71.29418945 8.35351562 C70.14523193 8.27810547 68.99627441 8.20269531 67.8125 8.125 C57.22218027 7.39740464 46.64141185 6.5907398 36.06430054 5.69134521 C34.59110147 5.56616113 33.11781716 5.44197531 31.6444397 5.31890869 C21.0669985 4.43336396 10.53490869 3.29599689 0 2 C0 1.34 0 0.68 0 0 Z " fill="#5B8FDC" transform="translate(352,247)"/>
<path d="M0 0 C6.6 0.33 13.2 0.66 20 1 C20 1.33 20 1.66 20 2 C13.24894632 3.12517561 6.73385072 3.68346268 0 2 C0 1.34 0 0.68 0 0 Z " fill="#5383C9" transform="translate(399,251)"/>
</svg>
