<?xml version="1.0" encoding="UTF-8"?>
<!DOCTYPE svg PUBLIC "-//W3C//DTD SVG 1.1//EN" "http://www.w3.org/Graphics/SVG/1.1/DTD/svg11.dtd">
<svg xmlns="http://www.w3.org/2000/svg" version="1.1" width="512px" height="512px" style="shape-rendering:geometricPrecision; text-rendering:geometricPrecision; image-rendering:optimizeQuality; fill-rule:evenodd; clip-rule:evenodd" xmlns:xlink="http://www.w3.org/1999/xlink">
<g><path style="opacity:0.977" fill="#020203" d="M 511.5,472.5 C 511.5,474.833 511.5,477.167 511.5,479.5C 510.691,480.469 509.691,481.302 508.5,482C 339.833,482.667 171.167,482.667 2.5,482C 1.30943,481.302 0.309426,480.469 -0.5,479.5C -0.5,477.167 -0.5,474.833 -0.5,472.5C 0.682751,471.496 2.01608,470.662 3.5,470C 10.1583,469.5 16.825,469.334 23.5,469.5C 23.3333,357.166 23.5,244.833 24,132.5C 24.7845,130.714 25.9512,129.214 27.5,128C 49.8333,127.667 72.1667,127.333 94.5,127C 99.2748,115.35 104.441,103.85 110,92.5C 117.835,80.1588 129.001,75.4922 143.5,78.5C 143.333,63.163 143.5,47.8297 144,32.5C 144.5,30.6667 145.667,29.5 147.5,29C 219.5,28.3333 291.5,28.3333 363.5,29C 365.333,29.5 366.5,30.6667 367,32.5C 367.5,47.8297 367.667,63.163 367.5,78.5C 381.999,75.4922 393.165,80.1588 401,92.5C 406.559,103.85 411.725,115.35 416.5,127C 438.833,127.333 461.167,127.667 483.5,128C 485.049,129.214 486.215,130.714 487,132.5C 487.5,244.833 487.667,357.166 487.5,469.5C 494.175,469.334 500.842,469.5 507.5,470C 508.984,470.662 510.317,471.496 511.5,472.5 Z M 133.5,90.5 C 136.833,90.5 140.167,90.5 143.5,90.5C 143.5,102.833 143.5,115.167 143.5,127.5C 132.167,127.5 120.833,127.5 109.5,127.5C 112.977,117.582 117.143,107.915 122,98.5C 124.961,94.3396 128.795,91.6729 133.5,90.5 Z M 367.5,90.5 C 376.257,89.139 383.424,91.8057 389,98.5C 394.246,107.751 398.413,117.417 401.5,127.5C 390.167,127.5 378.833,127.5 367.5,127.5C 367.5,115.167 367.5,102.833 367.5,90.5 Z"/></g>
<g><path style="opacity:1" fill="#e2f5fa" d="M 156.5,40.5 C 222.5,40.5 288.5,40.5 354.5,40.5C 354.5,69.8333 354.5,99.1667 354.5,128.5C 288.5,128.5 222.5,128.5 156.5,128.5C 156.5,99.1667 156.5,69.8333 156.5,40.5 Z"/></g>
<g><path style="opacity:1" fill="#010101" d="M 172.5,55.5 C 186.837,55.3334 201.171,55.5001 215.5,56C 218.425,59.696 218.092,63.0293 214.5,66C 209.511,66.4993 204.511,66.6659 199.5,66.5C 199.5,78.5 199.5,90.5 199.5,102.5C 204.511,102.334 209.511,102.501 214.5,103C 218.485,106.381 218.485,109.714 214.5,113C 200.5,113.667 186.5,113.667 172.5,113C 168.515,109.714 168.515,106.381 172.5,103C 177.489,102.501 182.489,102.334 187.5,102.5C 187.5,90.5 187.5,78.5 187.5,66.5C 182.489,66.6659 177.489,66.4993 172.5,66C 168.58,62.4575 168.58,58.9575 172.5,55.5 Z"/></g>
<g><path style="opacity:1" fill="#020202" d="M 253.5,55.5 C 258.844,55.334 264.177,55.5006 269.5,56C 272.122,59.1305 272.122,62.2972 269.5,65.5C 255.087,63.9127 248.754,70.246 250.5,84.5C 249.088,98.4217 255.422,104.755 269.5,103.5C 272.122,106.703 272.122,109.87 269.5,113C 259.074,115.653 250.241,113.153 243,105.5C 241.725,103.283 240.725,100.949 240,98.5C 239.333,88.8333 239.333,79.1667 240,69.5C 242.713,62.9558 247.213,58.2892 253.5,55.5 Z"/></g>
<g><path style="opacity:1" fill="#050606" d="M 293.5,55.5 C 297.49,54.6155 300.323,55.9489 302,59.5C 302.333,70.1667 302.667,80.8333 303,91.5C 307.416,102.193 314.583,104.693 324.5,99C 326.041,97.4207 327.208,95.5873 328,93.5C 328.978,81.4742 329.978,69.4742 331,57.5C 334.13,54.8783 337.297,54.8783 340.5,57.5C 341.645,68.7869 341.811,80.1202 341,91.5C 334.966,111.767 322.132,117.934 302.5,110C 292.076,100.678 288.076,89.0111 290.5,75C 290.667,69.5 290.833,64 291,58.5C 291.698,57.3094 292.531,56.3094 293.5,55.5 Z"/></g>
<g><path style="opacity:1" fill="#5fcfe8" d="M 36.5,140.5 C 182.5,140.5 328.5,140.5 474.5,140.5C 474.5,164.167 474.5,187.833 474.5,211.5C 464.5,211.5 454.5,211.5 444.5,211.5C 444.667,198.496 444.5,185.496 444,172.5C 443.5,172 443,171.5 442.5,171C 317.833,170.333 193.167,170.333 68.5,171C 68,171.5 67.5,172 67,172.5C 66.5001,185.496 66.3334,198.496 66.5,211.5C 56.5,211.5 46.5,211.5 36.5,211.5C 36.5,187.833 36.5,164.167 36.5,140.5 Z"/></g>
<g><path style="opacity:1" fill="#e4f8fd" d="M 77.5,181.5 C 134.833,181.5 192.167,181.5 249.5,181.5C 249.5,253.167 249.5,324.833 249.5,396.5C 192.167,396.5 134.833,396.5 77.5,396.5C 77.5,324.833 77.5,253.167 77.5,181.5 Z"/></g>
<g><path style="opacity:1" fill="#e4f8fd" d="M 261.5,181.5 C 318.833,181.5 376.167,181.5 433.5,181.5C 433.5,253.167 433.5,324.833 433.5,396.5C 376.167,396.5 318.833,396.5 261.5,396.5C 261.5,324.833 261.5,253.167 261.5,181.5 Z"/></g>
<g><path style="opacity:1" fill="#040505" d="M 156.5,198.5 C 188.15,197.544 207.983,212.21 216,242.5C 219.255,269.493 208.755,288.993 184.5,301C 160.853,309.463 140.353,304.63 123,286.5C 106.431,263.464 106.431,240.464 123,217.5C 132.159,207.483 143.325,201.149 156.5,198.5 Z"/></g>
<g><path style="opacity:1" fill="#030404" d="M 340.5,198.5 C 368.295,197.636 387.462,209.97 398,235.5C 404.323,261.209 396.823,281.709 375.5,297C 348.734,310.65 325.234,306.483 305,284.5C 295.498,271.309 292.165,256.642 295,240.5C 302.028,217.637 317.195,203.637 340.5,198.5 Z"/></g>
<g><path style="opacity:0.999" fill="#5fcfe8" d="M 156.5,210.5 C 187.861,210.031 204.027,225.364 205,256.5C 198.744,284.052 181.577,295.885 153.5,292C 130.565,283.981 120.399,267.814 123,243.5C 128.096,226.237 139.263,215.237 156.5,210.5 Z"/></g>
<g><path style="opacity:0.999" fill="#5fcfe8" d="M 339.5,210.5 C 364.206,209.051 380.373,220.051 388,243.5C 390.248,270.189 378.415,286.689 352.5,293C 334.449,294.557 320.615,287.724 311,272.5C 299.694,242.118 309.194,221.451 339.5,210.5 Z"/></g>
<g><path style="opacity:1" fill="#60d0e9" d="M 36.5,223.5 C 46.5,223.5 56.5,223.5 66.5,223.5C 66.5,287.167 66.5,350.833 66.5,414.5C 56.5,414.5 46.5,414.5 36.5,414.5C 36.5,350.833 36.5,287.167 36.5,223.5 Z"/></g>
<g><path style="opacity:1" fill="#60d0e9" d="M 444.5,223.5 C 454.5,223.5 464.5,223.5 474.5,223.5C 474.5,287.167 474.5,350.833 474.5,414.5C 464.5,414.5 454.5,414.5 444.5,414.5C 444.5,350.833 444.5,287.167 444.5,223.5 Z"/></g>
<g><path style="opacity:0.999" fill="#000101" d="M 171.5,228.5 C 177.784,227.619 180.617,230.286 180,236.5C 169.5,247 159,257.5 148.5,268C 142.171,268.668 139.671,265.834 141,259.5C 151.369,249.298 161.535,238.965 171.5,228.5 Z"/></g>
<g><path style="opacity:1" fill="#020505" d="M 355.5,228.5 C 362.935,228.366 365.102,231.7 362,238.5C 352.5,248 343,257.5 333.5,267C 325.333,269.5 322.5,266.667 325,258.5C 335.062,248.271 345.228,238.271 355.5,228.5 Z"/></g>
<g><path style="opacity:1" fill="#040809" d="M 179.5,247.5 C 186.463,247.765 188.63,251.098 186,257.5C 180.167,263.333 174.333,269.167 168.5,275C 160.874,275.922 158.374,272.756 161,265.5C 167.062,259.27 173.229,253.27 179.5,247.5 Z"/></g>
<g><path style="opacity:0.999" fill="#000101" d="M 363.5,247.5 C 369.356,247.854 371.523,250.854 370,256.5C 363.833,262.667 357.667,268.833 351.5,275C 344.834,275.996 342.334,273.163 344,266.5C 350.395,259.937 356.895,253.603 363.5,247.5 Z"/></g>
<g><path style="opacity:1" fill="#020303" d="M 194.5,321.5 C 206.838,321.333 219.171,321.5 231.5,322C 232.333,322.833 233.167,323.667 234,324.5C 234.667,341.833 234.667,359.167 234,376.5C 233.626,377.416 233.126,378.25 232.5,379C 226.103,380.128 219.603,380.628 213,380.5C 207.167,380.333 201.333,380.167 195.5,380C 194.584,379.626 193.75,379.126 193,378.5C 191.361,360.591 191.027,342.591 192,324.5C 193.045,323.627 193.878,322.627 194.5,321.5 Z"/></g>
<g><path style="opacity:1" fill="#020303" d="M 279.5,321.5 C 291.838,321.333 304.171,321.5 316.5,322C 317.333,322.833 318.167,323.667 319,324.5C 319.667,341.833 319.667,359.167 319,376.5C 318.626,377.416 318.126,378.25 317.5,379C 311.103,380.128 304.603,380.628 298,380.5C 292.167,380.333 286.333,380.167 280.5,380C 279.584,379.626 278.75,379.126 278,378.5C 276.361,360.591 276.027,342.591 277,324.5C 278.045,323.627 278.878,322.627 279.5,321.5 Z"/></g>
<g><path style="opacity:0.999" fill="#9fe1f0" d="M 203.5,333.5 C 209.833,333.5 216.167,333.5 222.5,333.5C 222.5,345.167 222.5,356.833 222.5,368.5C 216.167,368.5 209.833,368.5 203.5,368.5C 203.5,356.833 203.5,345.167 203.5,333.5 Z"/></g>
<g><path style="opacity:0.999" fill="#9fe1f0" d="M 288.5,333.5 C 294.833,333.5 301.167,333.5 307.5,333.5C 307.5,345.167 307.5,356.833 307.5,368.5C 301.167,368.5 294.833,368.5 288.5,368.5C 288.5,356.833 288.5,345.167 288.5,333.5 Z"/></g>
<g><path style="opacity:1" fill="#fa6865" d="M 78.5,408.5 C 135.5,408.5 192.5,408.5 249.5,408.5C 249.5,416.833 249.5,425.167 249.5,433.5C 192.5,433.5 135.5,433.5 78.5,433.5C 78.5,425.167 78.5,416.833 78.5,408.5 Z"/></g>
<g><path style="opacity:1" fill="#fa6765" d="M 261.5,408.5 C 318.5,408.5 375.5,408.5 432.5,408.5C 432.5,416.833 432.5,425.167 432.5,433.5C 375.5,433.5 318.5,433.5 261.5,433.5C 261.5,425.167 261.5,416.833 261.5,408.5 Z"/></g>
<g><path style="opacity:1" fill="#9ee1f0" d="M 65.5,426.5 C 65.5,440.833 65.5,455.167 65.5,469.5C 55.8333,469.5 46.1667,469.5 36.5,469.5C 36.5,455.167 36.5,440.833 36.5,426.5C 46.1667,426.5 55.8333,426.5 65.5,426.5 Z"/></g>
<g><path style="opacity:1" fill="#9ee1f0" d="M 445.5,426.5 C 455.167,426.5 464.833,426.5 474.5,426.5C 474.5,440.833 474.5,455.167 474.5,469.5C 464.833,469.5 455.167,469.5 445.5,469.5C 445.5,455.167 445.5,440.833 445.5,426.5 Z"/></g>
<g><path style="opacity:0.761" fill="#aebdc1" d="M 249.5,445.5 C 192.5,445.5 135.5,445.5 78.5,445.5C 78.5,453.5 78.5,461.5 78.5,469.5C 77.5073,461.35 77.1739,453.017 77.5,444.5C 135.002,444.168 192.336,444.501 249.5,445.5 Z"/></g>
<g><path style="opacity:1" fill="#e2f6fb" d="M 249.5,445.5 C 249.5,453.833 249.5,462.167 249.5,470.5C 192.331,470.832 135.331,470.499 78.5,469.5C 78.5,461.5 78.5,453.5 78.5,445.5C 135.5,445.5 192.5,445.5 249.5,445.5 Z"/></g>
<g><path style="opacity:1" fill="#e5fafe" d="M 261.5,445.5 C 318.5,445.5 375.5,445.5 432.5,445.5C 432.5,453.5 432.5,461.5 432.5,469.5C 375.5,469.5 318.5,469.5 261.5,469.5C 261.5,461.5 261.5,453.5 261.5,445.5 Z"/></g>
<g><path style="opacity:0.855" fill="#71a1ac" d="M 65.5,426.5 C 66.496,440.99 66.8293,455.657 66.5,470.5C 56.3194,470.827 46.3194,470.494 36.5,469.5C 46.1667,469.5 55.8333,469.5 65.5,469.5C 65.5,455.167 65.5,440.833 65.5,426.5 Z"/></g>
<g><path style="opacity:0.922" fill="#a0aeb2" d="M 261.5,445.5 C 318.664,444.501 375.998,444.168 433.5,444.5C 433.5,453.167 433.5,461.833 433.5,470.5C 375.998,470.832 318.664,470.499 261.5,469.5C 318.5,469.5 375.5,469.5 432.5,469.5C 432.5,461.5 432.5,453.5 432.5,445.5C 375.5,445.5 318.5,445.5 261.5,445.5 Z"/></g>
<g><path style="opacity:0.867" fill="#73a5af" d="M 445.5,426.5 C 445.5,440.833 445.5,455.167 445.5,469.5C 455.167,469.5 464.833,469.5 474.5,469.5C 464.681,470.494 454.681,470.827 444.5,470.5C 444.171,455.657 444.504,440.99 445.5,426.5 Z"/></g>
</svg>
