<?xml version="1.0" encoding="UTF-8"?>
<!DOCTYPE svg PUBLIC "-//W3C//DTD SVG 1.1//EN" "http://www.w3.org/Graphics/SVG/1.1/DTD/svg11.dtd">
<svg xmlns="http://www.w3.org/2000/svg" version="1.1" width="715px" height="1080px" style="shape-rendering:geometricPrecision; text-rendering:geometricPrecision; image-rendering:optimizeQuality; fill-rule:evenodd; clip-rule:evenodd" xmlns:xlink="http://www.w3.org/1999/xlink">
<g><path style="opacity:1" fill="#fefefe" d="M -0.5,-0.5 C 109.167,-0.5 218.833,-0.5 328.5,-0.5C 328.5,36.8333 328.5,74.1667 328.5,111.5C 335.5,111.5 342.5,111.5 349.5,111.5C 349.5,74.1667 349.5,36.8333 349.5,-0.5C 471.167,-0.5 592.833,-0.5 714.5,-0.5C 714.5,244.167 714.5,488.833 714.5,733.5C 709.726,722.6 701.393,716.267 689.5,714.5C 567.5,713.833 445.5,713.167 323.5,712.5C 357.013,706.749 390.346,700.249 423.5,693C 424.705,691.624 426.038,690.458 427.5,689.5C 429.687,690.758 432.02,691.758 434.5,692.5C 433.266,695.407 431.266,697.741 428.5,699.5C 430.707,701.029 433.207,701.695 436,701.5C 470.544,696.786 505.044,691.786 539.5,686.5C 573.021,692.919 606.354,700.086 639.5,708C 658.571,710.258 669.571,701.924 672.5,683C 671.806,672.272 666.806,664.272 657.5,659C 624.92,651.457 592.254,644.123 559.5,637C 553.24,635.581 546.907,634.748 540.5,634.5C 506.046,638.66 471.712,643.66 437.5,649.5C 434.05,647.226 430.717,644.726 427.5,642C 424.56,640.848 421.56,639.848 418.5,639C 395.833,638.333 373.167,638.333 350.5,639C 349.601,640.652 348.601,642.152 347.5,643.5C 346.814,642.152 345.814,640.985 344.5,640C 346.606,638.363 347.272,636.53 346.5,634.5C 358.499,613.173 369.999,591.506 381,569.5C 381.667,534.833 381.667,500.167 381,465.5C 377.02,446.519 365.52,435.352 346.5,432C 309.833,431.333 273.167,431.333 236.5,432C 217.463,435.37 205.963,446.537 202,465.5C 201.333,499.5 201.333,533.5 202,567.5C 216.094,589.36 229.928,611.36 243.5,633.5C 244.218,635.137 244.384,636.803 244,638.5C 243.692,637.692 243.192,637.025 242.5,636.5C 233.371,637.141 224.371,637.808 215.5,638.5C 186.659,644.183 176.159,661.183 184,689.5C 186.729,695.563 190.896,700.397 196.5,704C 213.5,704.667 230.5,704.667 247.5,704C 244.621,703.454 241.954,702.621 239.5,701.5C 240.359,699.894 240.526,698.227 240,696.5C 242.392,698.064 244.892,699.397 247.5,700.5C 248.167,700.333 248.833,700.167 249.5,700C 247.273,699.296 246.94,698.129 248.5,696.5C 270.175,701.837 291.842,707.17 313.5,712.5C 254.5,713.167 195.5,713.833 136.5,714.5C 120.902,720.906 105.235,721.073 89.5,715C 66.5,714.333 43.5,714.333 20.5,715C 9.4737,718.856 2.4737,726.356 -0.5,737.5C -0.5,491.5 -0.5,245.5 -0.5,-0.5 Z"/></g>
<g><path style="opacity:1" fill="#2c5c9c" d="M 328.5,-0.5 C 335.5,-0.5 342.5,-0.5 349.5,-0.5C 349.5,36.8333 349.5,74.1667 349.5,111.5C 342.5,111.5 335.5,111.5 328.5,111.5C 328.5,74.1667 328.5,36.8333 328.5,-0.5 Z"/></g>
<g><path style="opacity:1" fill="#305e9d" d="M 438.5,138.5 C 386.035,125.662 333.035,123.162 279.5,131C 268.191,132.747 257.191,135.247 246.5,138.5C 245.5,138.5 244.5,138.5 243.5,138.5C 244.436,135.041 246.436,132.207 249.5,130C 264.633,122.55 280.633,118.216 297.5,117C 334.377,112.772 371.044,114.105 407.5,121C 416.218,122.93 424.551,125.93 432.5,130C 435.564,132.207 437.564,135.041 438.5,138.5 Z"/></g>
<g><path style="opacity:1" fill="#e0e7ef" d="M 438.5,138.5 C 438.557,139.609 438.89,140.609 439.5,141.5C 392.829,129.809 345.496,126.309 297.5,131C 281.337,133 265.337,135.833 249.5,139.5C 248.791,138.596 247.791,138.263 246.5,138.5C 257.191,135.247 268.191,132.747 279.5,131C 333.035,123.162 386.035,125.662 438.5,138.5 Z"/></g>
<g><path style="opacity:1" fill="#2d5c9c" d="M 439.5,141.5 C 455.472,145.821 470.472,152.321 484.5,161C 492.148,166.313 497.982,173.146 502,181.5C 502.49,182.793 502.657,184.127 502.5,185.5C 502.825,193.019 502.492,200.352 501.5,207.5C 500.316,204.139 498.483,201.139 496,198.5C 484.421,189.458 471.588,182.625 457.5,178C 382.322,158.17 306.989,157.504 231.5,176C 214.721,180.468 199.554,187.968 186,198.5C 183.517,201.139 181.684,204.139 180.5,207.5C 179.508,200.018 179.175,192.352 179.5,184.5C 180.596,179.642 182.762,175.309 186,171.5C 197.976,160.09 211.809,151.59 227.5,146C 234.749,143.521 242.083,141.355 249.5,139.5C 265.337,135.833 281.337,133 297.5,131C 345.496,126.309 392.829,129.809 439.5,141.5 Z"/></g>
<g><path style="opacity:1" fill="#2d5c9c" d="M 502.5,213.5 C 503.915,224.172 500.249,232.672 491.5,239C 480.287,246.272 468.287,251.939 455.5,256C 394.87,271.418 333.537,274.751 271.5,266C 246.371,262.846 222.371,255.846 199.5,245C 191,240.5 184.5,234 180,225.5C 179.501,221.514 179.334,217.514 179.5,213.5C 184.307,206.527 190.307,200.694 197.5,196C 207.498,190.833 217.832,186.5 228.5,183C 263.507,173.332 299.174,168.832 335.5,169.5C 374.085,168.592 412.085,172.758 449.5,182C 464.038,186.105 477.705,192.105 490.5,200C 495.108,204.099 499.108,208.599 502.5,213.5 Z"/></g>
<g><path style="opacity:1" fill="#fbfcfc" d="M 329.5,186.5 C 343.8,184.933 357.467,187.1 370.5,193C 377.576,200.068 376.909,206.402 368.5,212C 359.297,216.201 349.63,218.034 339.5,217.5C 327.521,218.552 317.021,215.219 308,207.5C 304.555,200.809 306.388,195.643 313.5,192C 318.715,189.429 324.048,187.596 329.5,186.5 Z"/></g>
<g><path style="opacity:1" fill="#eff3f6" d="M 501.5,207.5 C 501.427,209.027 502.094,210.027 503.5,210.5C 503.737,211.791 503.404,212.791 502.5,213.5C 499.108,208.599 495.108,204.099 490.5,200C 477.705,192.105 464.038,186.105 449.5,182C 412.085,172.758 374.085,168.592 335.5,169.5C 299.174,168.832 263.507,173.332 228.5,183C 217.832,186.5 207.498,190.833 197.5,196C 190.307,200.694 184.307,206.527 179.5,213.5C 178.89,212.609 178.557,211.609 178.5,210.5C 179.906,210.027 180.573,209.027 180.5,207.5C 181.684,204.139 183.517,201.139 186,198.5C 199.554,187.968 214.721,180.468 231.5,176C 306.989,157.504 382.322,158.17 457.5,178C 471.588,182.625 484.421,189.458 496,198.5C 498.483,201.139 500.316,204.139 501.5,207.5 Z"/></g>
<g><path style="opacity:1" fill="#9cb2d0" d="M 179.5,184.5 C 179.175,192.352 179.508,200.018 180.5,207.5C 180.573,209.027 179.906,210.027 178.5,210.5C 178.174,201.651 178.507,192.984 179.5,184.5 Z"/></g>
<g><path style="opacity:1" fill="#a1b4d5" d="M 502.5,185.5 C 503.493,193.65 503.826,201.983 503.5,210.5C 502.094,210.027 501.427,209.027 501.5,207.5C 502.492,200.352 502.825,193.019 502.5,185.5 Z"/></g>
<g><path style="opacity:1" fill="#fcfcfd" d="M 242.5,204.5 C 256.161,203.411 269.494,204.911 282.5,209C 293.124,214.369 294.124,221.036 285.5,229C 272.477,235.066 258.81,237.066 244.5,235C 236.053,234.026 228.886,230.526 223,224.5C 221.85,222.246 221.516,219.913 222,217.5C 224.167,214 227,211.167 230.5,209C 234.61,207.485 238.61,205.985 242.5,204.5 Z"/></g>
<g><path style="opacity:1" fill="#fbfcfc" d="M 412.5,208.5 C 424.496,207.577 436.163,209.077 447.5,213C 459.543,218.632 460.543,225.632 450.5,234C 437.321,239.225 423.654,240.891 409.5,239C 401.169,238.252 394.336,234.752 389,228.5C 387,225.5 387,222.5 389,219.5C 395.567,213.038 403.4,209.371 412.5,208.5 Z"/></g>
<g><path style="opacity:1" fill="#fbfcfc" d="M 321.5,224.5 C 333.378,223.736 345.044,224.903 356.5,228C 360.419,229.54 363.919,231.707 367,234.5C 370.129,241.411 368.296,246.578 361.5,250C 352.351,254.414 342.685,256.248 332.5,255.5C 319.879,256.904 309.045,253.238 300,244.5C 298.578,241.97 298.245,239.303 299,236.5C 305.234,229.968 312.734,225.968 321.5,224.5 Z"/></g>
<g><path style="opacity:1" fill="#315e9d" d="M 260.5,308.5 C 281.503,308.333 302.503,308.5 323.5,309C 325.667,309.833 327.167,311.333 328,313.5C 329.929,323.049 332.095,332.549 334.5,342C 334.167,342.5 333.833,343 333.5,343.5C 307.301,331.93 280.967,331.597 254.5,342.5C 255.618,332.838 256.785,323.171 258,313.5C 259.094,311.922 259.928,310.255 260.5,308.5 Z"/></g>
<g><path style="opacity:1" fill="#2d5c9c" d="M 285.5,343.5 C 305.985,342.913 324.985,347.913 342.5,358.5C 343.647,360.765 343.814,363.098 343,365.5C 335.833,371.333 328.667,377.167 321.5,383C 302.167,383.667 282.833,383.667 263.5,383C 257.593,378.462 251.426,374.295 245,370.5C 244.39,366.764 244.723,363.097 246,359.5C 257.797,350.735 270.964,345.402 285.5,343.5 Z"/></g>
<g><path style="opacity:1" fill="#2f5d9c" d="M 342.5,372.5 C 342.587,390.632 334.587,404.298 318.5,413.5C 318.167,413.167 317.833,412.833 317.5,412.5C 320.632,405.194 322.298,397.527 322.5,389.5C 329.61,384.29 336.276,378.623 342.5,372.5 Z"/></g>
<g><path style="opacity:1" fill="#2f5c9c" d="M 245.5,377.5 C 252.118,381.611 258.618,385.945 265,390.5C 265.318,397.603 266.818,404.436 269.5,411C 269.167,411.5 268.833,412 268.5,412.5C 255.613,404.277 247.947,392.61 245.5,377.5 Z"/></g>
<g><path style="opacity:1" fill="#718dba" d="M 311.5,416.5 C 309.052,415.527 306.385,415.194 303.5,415.5C 307.685,414.48 312.019,413.98 316.5,414C 315.09,415.372 313.423,416.205 311.5,416.5 Z"/></g>
<g><path style="opacity:1" fill="#355f9d" d="M 303.5,415.5 C 306.385,415.194 309.052,415.527 311.5,416.5C 297.727,421.223 284.394,420.389 271.5,414C 282.081,415.096 292.748,415.596 303.5,415.5 Z"/></g>
<g><path style="opacity:1" fill="#2d5c9c" d="M 346.5,634.5 C 342.441,640.941 338.608,647.607 335,654.5C 328.402,661.043 320.902,662.209 312.5,658C 305.201,651.622 303.701,644.122 308,635.5C 321.099,612.3 333.933,588.967 346.5,565.5C 347.498,542.673 347.831,519.673 347.5,496.5C 346.209,496.263 345.209,496.596 344.5,497.5C 344.667,518.836 344.5,540.169 344,561.5C 331.413,583.673 319.08,606.006 307,628.5C 300.223,629.811 293.39,629.811 286.5,628.5C 271,604.167 255.5,579.833 240,555.5C 239.5,535.836 239.333,516.169 239.5,496.5C 238.167,496.5 236.833,496.5 235.5,496.5C 235.333,517.169 235.5,537.836 236,558.5C 251.916,582.663 267.583,606.997 283,631.5C 289.151,649.679 282.651,658.512 263.5,658C 260.734,656.533 258.234,654.7 256,652.5C 251.81,646.101 247.643,639.768 243.5,633.5C 229.928,611.36 216.094,589.36 202,567.5C 201.333,533.5 201.333,499.5 202,465.5C 205.963,446.537 217.463,435.37 236.5,432C 273.167,431.333 309.833,431.333 346.5,432C 365.52,435.352 377.02,446.519 381,465.5C 381.667,500.167 381.667,534.833 381,569.5C 369.999,591.506 358.499,613.173 346.5,634.5 Z"/></g>
<g><path style="opacity:1" fill="#cedaeb" d="M 344.5,497.5 C 345.209,496.596 346.209,496.263 347.5,496.5C 347.831,519.673 347.498,542.673 346.5,565.5C 347.156,542.475 346.49,519.809 344.5,497.5 Z"/></g>
<g><path style="opacity:1" fill="#2d5c9c" d="M 105.5,615.5 C 134.067,614.926 152.234,628.26 160,655.5C 161.848,684.335 149.014,702.835 121.5,711C 91.4833,713.747 72.6499,700.581 65,671.5C 63.5977,641.947 77.0977,623.28 105.5,615.5 Z"/></g>
<g><path style="opacity:1" fill="#f0f4f7" d="M 344.5,497.5 C 346.49,519.809 347.156,542.475 346.5,565.5C 333.933,588.967 321.099,612.3 308,635.5C 303.701,644.122 305.201,651.622 312.5,658C 320.902,662.209 328.402,661.043 335,654.5C 338.608,647.607 342.441,640.941 346.5,634.5C 347.272,636.53 346.606,638.363 344.5,640C 345.814,640.985 346.814,642.152 347.5,643.5C 344.32,651.359 339.987,658.526 334.5,665C 323.364,671.904 313.197,670.737 304,661.5C 299.21,654.386 298.376,646.886 301.5,639C 297.848,638.501 294.182,638.335 290.5,638.5C 288.919,659.643 277.919,666.809 257.5,660C 251.681,653.36 246.348,646.36 241.5,639C 232.84,638.5 224.173,638.334 215.5,638.5C 224.371,637.808 233.371,637.141 242.5,636.5C 243.192,637.025 243.692,637.692 244,638.5C 244.384,636.803 244.218,635.137 243.5,633.5C 247.643,639.768 251.81,646.101 256,652.5C 258.234,654.7 260.734,656.533 263.5,658C 282.651,658.512 289.151,649.679 283,631.5C 267.583,606.997 251.916,582.663 236,558.5C 235.5,537.836 235.333,517.169 235.5,496.5C 236.833,496.5 238.167,496.5 239.5,496.5C 239.333,516.169 239.5,535.836 240,555.5C 255.5,579.833 271,604.167 286.5,628.5C 293.39,629.811 300.223,629.811 307,628.5C 319.08,606.006 331.413,583.673 344,561.5C 344.5,540.169 344.667,518.836 344.5,497.5 Z"/></g>
<g><path style="opacity:1" fill="#2d5c9c" d="M 434.5,692.5 C 441.47,677.257 437.137,666.424 421.5,660C 418.5,659.333 415.5,659.333 412.5,660C 381.38,666.071 350.214,671.905 319,677.5C 287.338,669.501 255.671,661.501 224,653.5C 207.478,655.689 200.478,665.022 203,681.5C 205.013,688.181 209.18,693.014 215.5,696C 223.385,698.41 231.385,700.243 239.5,701.5C 241.954,702.621 244.621,703.454 247.5,704C 230.5,704.667 213.5,704.667 196.5,704C 190.896,700.397 186.729,695.563 184,689.5C 176.159,661.183 186.659,644.183 215.5,638.5C 224.173,638.334 232.84,638.5 241.5,639C 246.348,646.36 251.681,653.36 257.5,660C 277.919,666.809 288.919,659.643 290.5,638.5C 294.182,638.335 297.848,638.501 301.5,639C 298.376,646.886 299.21,654.386 304,661.5C 313.197,670.737 323.364,671.904 334.5,665C 339.987,658.526 344.32,651.359 347.5,643.5C 348.601,642.152 349.601,640.652 350.5,639C 373.167,638.333 395.833,638.333 418.5,639C 421.56,639.848 424.56,640.848 427.5,642C 430.717,644.726 434.05,647.226 437.5,649.5C 471.712,643.66 506.046,638.66 540.5,634.5C 546.907,634.748 553.24,635.581 559.5,637C 592.254,644.123 624.92,651.457 657.5,659C 666.806,664.272 671.806,672.272 672.5,683C 669.571,701.924 658.571,710.258 639.5,708C 606.354,700.086 573.021,692.919 539.5,686.5C 505.044,691.786 470.544,696.786 436,701.5C 433.207,701.695 430.707,701.029 428.5,699.5C 431.266,697.741 433.266,695.407 434.5,692.5 Z"/></g>
<g><path style="opacity:1" fill="#2d5c9c" d="M 427.5,689.5 C 426.038,690.458 424.705,691.624 423.5,693C 390.346,700.249 357.013,706.749 323.5,712.5C 320.167,712.5 316.833,712.5 313.5,712.5C 291.842,707.17 270.175,701.837 248.5,696.5C 239.293,693.698 229.96,691.198 220.5,689C 210.902,684.97 208.068,678.137 212,668.5C 214.817,664.091 218.817,662.091 224,662.5C 255.946,669.98 287.779,677.98 319.5,686.5C 351.514,680.164 383.514,673.83 415.5,667.5C 428.395,669.955 432.395,677.288 427.5,689.5 Z"/></g>
<g><path style="opacity:1" fill="#f5f8f9" d="M 434.5,692.5 C 432.02,691.758 429.687,690.758 427.5,689.5C 432.395,677.288 428.395,669.955 415.5,667.5C 383.514,673.83 351.514,680.164 319.5,686.5C 287.779,677.98 255.946,669.98 224,662.5C 218.817,662.091 214.817,664.091 212,668.5C 208.068,678.137 210.902,684.97 220.5,689C 229.96,691.198 239.293,693.698 248.5,696.5C 246.94,698.129 247.273,699.296 249.5,700C 248.833,700.167 248.167,700.333 247.5,700.5C 244.892,699.397 242.392,698.064 240,696.5C 240.526,698.227 240.359,699.894 239.5,701.5C 231.385,700.243 223.385,698.41 215.5,696C 209.18,693.014 205.013,688.181 203,681.5C 200.478,665.022 207.478,655.689 224,653.5C 255.671,661.501 287.338,669.501 319,677.5C 350.214,671.905 381.38,666.071 412.5,660C 415.5,659.333 418.5,659.333 421.5,660C 437.137,666.424 441.47,677.257 434.5,692.5 Z"/></g>
<g><path style="opacity:1" fill="#93abcd" d="M 313.5,712.5 C 316.833,712.5 320.167,712.5 323.5,712.5C 445.5,713.167 567.5,713.833 689.5,714.5C 505.167,714.5 320.833,714.5 136.5,714.5C 195.5,713.833 254.5,713.167 313.5,712.5 Z"/></g>
<g><path style="opacity:1" fill="#2b5b9b" d="M 136.5,714.5 C 320.833,714.5 505.167,714.5 689.5,714.5C 701.393,716.267 709.726,722.6 714.5,733.5C 714.5,739.833 714.5,746.167 714.5,752.5C 709.967,763.194 701.967,769.694 690.5,772C 467.5,772.667 244.5,772.667 21.5,772C 9.66681,767.677 2.33347,759.51 -0.5,747.5C -0.5,744.167 -0.5,740.833 -0.5,737.5C 2.4737,726.356 9.4737,718.856 20.5,715C 43.5,714.333 66.5,714.333 89.5,715C 105.235,721.073 120.902,720.906 136.5,714.5 Z"/></g>
<g><path style="opacity:1" fill="#fefefe" d="M -0.5,747.5 C 2.33347,759.51 9.66681,767.677 21.5,772C 244.5,772.667 467.5,772.667 690.5,772C 701.967,769.694 709.967,763.194 714.5,752.5C 714.5,834.833 714.5,917.167 714.5,999.5C 476.167,999.5 237.833,999.5 -0.5,999.5C -0.5,915.5 -0.5,831.5 -0.5,747.5 Z"/></g>
<g><path style="opacity:1" fill="#1a5093" d="M 64.5,782.5 C 262.167,782.5 459.833,782.5 657.5,782.5C 657.5,792.5 657.5,802.5 657.5,812.5C 600.833,812.5 544.167,812.5 487.5,812.5C 543.664,811.501 599.998,811.168 656.5,811.5C 656.5,802.167 656.5,792.833 656.5,783.5C 459.5,783.5 262.5,783.5 65.5,783.5C 64.8999,793.428 65.5666,803.095 67.5,812.5C 66.5,812.5 65.5,812.5 64.5,812.5C 64.5,802.5 64.5,792.5 64.5,782.5 Z"/></g>
<g><path style="opacity:1" fill="#7a96bf" d="M 64.5,782.5 C 262.333,781.5 460.333,781.167 658.5,781.5C 658.5,792.167 658.5,802.833 658.5,813.5C 600.167,813.5 541.833,813.5 483.5,813.5C 484.568,812.566 485.901,812.232 487.5,812.5C 544.167,812.5 600.833,812.5 657.5,812.5C 657.5,802.5 657.5,792.5 657.5,782.5C 459.833,782.5 262.167,782.5 64.5,782.5 Z"/></g>
<g><path style="opacity:1" fill="#2c5b9c" d="M 487.5,812.5 C 485.901,812.232 484.568,812.566 483.5,813.5C 483.5,847.5 483.5,881.5 483.5,915.5C 516.5,915.5 549.5,915.5 582.5,915.5C 582.5,918.833 582.5,922.167 582.5,925.5C 561.375,926.951 548.042,937.951 542.5,958.5C 416.168,959.5 289.835,959.833 163.5,959.5C 158.201,935.55 143.201,923.883 118.5,924.5C 117.167,924.5 115.833,924.5 114.5,924.5C 114.5,921.833 114.5,919.167 114.5,916.5C 162.003,916.832 209.336,916.499 256.5,915.5C 256.5,881.167 256.5,846.833 256.5,812.5C 193.5,812.5 130.5,812.5 67.5,812.5C 65.5666,803.095 64.8999,793.428 65.5,783.5C 262.5,783.5 459.5,783.5 656.5,783.5C 656.5,792.833 656.5,802.167 656.5,811.5C 599.998,811.168 543.664,811.501 487.5,812.5 Z"/></g>
<g><path style="opacity:1" fill="#97afd1" d="M 64.5,812.5 C 65.5,812.5 66.5,812.5 67.5,812.5C 130.5,812.5 193.5,812.5 256.5,812.5C 256.5,846.833 256.5,881.167 256.5,915.5C 256.167,915.5 255.833,915.5 255.5,915.5C 255.5,881.5 255.5,847.5 255.5,813.5C 191.664,813.832 127.998,813.499 64.5,812.5 Z"/></g>
<g><path style="opacity:1" fill="#5580b1" d="M 255.5,915.5 C 255.833,915.5 256.167,915.5 256.5,915.5C 209.336,916.499 162.003,916.832 114.5,916.5C 114.5,919.167 114.5,921.833 114.5,924.5C 115.833,924.5 117.167,924.5 118.5,924.5C 117.081,925.451 115.415,925.784 113.5,925.5C 113.5,922.167 113.5,918.833 113.5,915.5C 160.833,915.5 208.167,915.5 255.5,915.5 Z"/></g>
<g><path style="opacity:1" fill="#2d5c9c" d="M 114.5,932.5 C 133.747,929.613 147.247,936.947 155,954.5C 158.879,968.819 155.379,980.986 144.5,991C 134.328,997.627 123.328,999.294 111.5,996C 94.3932,987.282 87.8932,973.448 92,954.5C 96.7704,944.228 104.27,936.895 114.5,932.5 Z"/></g>
<g><path style="opacity:1" fill="#2d5c9c" d="M 573.5,933.5 C 593.821,930.57 607.655,938.57 615,957.5C 618.102,977.474 610.269,990.974 591.5,998C 571.781,1001.56 558.281,994.06 551,975.5C 547.212,955.408 554.712,941.408 573.5,933.5 Z"/></g>
<g><path style="opacity:1" fill="#f6f8fa" d="M 119.5,955.5 C 130.361,954.516 134.527,959.183 132,969.5C 126.925,975.524 121.592,975.857 116,970.5C 113.343,964.586 114.51,959.586 119.5,955.5 Z"/></g>
<g><path style="opacity:1" fill="#f5f8f9" d="M 578.5,956.5 C 589.361,955.516 593.527,960.183 591,970.5C 584.833,977.412 579.167,977.079 574,969.5C 572.379,963.923 573.879,959.589 578.5,956.5 Z"/></g>
<g><path style="opacity:1" fill="#111224" d="M -0.5,999.5 C 237.833,999.5 476.167,999.5 714.5,999.5C 714.5,1026.17 714.5,1052.83 714.5,1079.5C 476.167,1079.5 237.833,1079.5 -0.5,1079.5C -0.5,1052.83 -0.5,1026.17 -0.5,999.5 Z"/></g>
<g><path style="opacity:1" fill="#dbdbdf" d="M 85.5,1027.5 C 87.3079,1028.92 87.9746,1030.92 87.5,1033.5C 92.8333,1034.17 92.8333,1034.83 87.5,1035.5C 87.3343,1039.85 87.501,1044.18 88,1048.5C 88.6368,1050.3 89.8035,1051.64 91.5,1052.5C 88.9455,1053.3 87.1122,1052.3 86,1049.5C 85.5003,1042.17 85.3337,1034.84 85.5,1027.5 Z"/></g>
<g><path style="opacity:1" fill="#e9e9eb" d="M 129.5,1027.5 C 133.342,1027.24 137.009,1027.91 140.5,1029.5C 141.833,1030.83 141.833,1032.17 140.5,1033.5C 137.547,1031.13 134.214,1030.29 130.5,1031C 128.473,1032.4 128.14,1034.06 129.5,1036C 133.116,1037.49 136.783,1038.82 140.5,1040C 145.121,1045.55 144.121,1049.89 137.5,1053C 133.129,1053.63 128.796,1053.46 124.5,1052.5C 124.358,1048.78 125.691,1047.94 128.5,1050C 133.094,1051.34 136.761,1050.17 139.5,1046.5C 139.471,1044.97 138.804,1043.8 137.5,1043C 133.149,1042.11 129.315,1040.28 126,1037.5C 124.755,1033.24 125.922,1029.9 129.5,1027.5 Z"/></g>
<g><path style="opacity:1" fill="#f5f5f6" d="M 146.5,1027.5 C 147.5,1027.5 148.5,1027.5 149.5,1027.5C 149.5,1029.5 149.5,1031.5 149.5,1033.5C 151.167,1033.5 152.833,1033.5 154.5,1033.5C 154.5,1034.5 154.5,1035.5 154.5,1036.5C 152.833,1036.5 151.167,1036.5 149.5,1036.5C 149.334,1040.51 149.501,1044.51 150,1048.5C 151.307,1049.77 152.807,1050.77 154.5,1051.5C 151.785,1054.21 149.285,1053.88 147,1050.5C 146.5,1042.84 146.334,1035.17 146.5,1027.5 Z"/></g>
<g><path style="opacity:1" fill="#efeff0" d="M 196.5,1027.5 C 196.174,1031.88 196.508,1036.22 197.5,1040.5C 198.107,1040.38 198.44,1040.04 198.5,1039.5C 200.604,1037.9 202.604,1036.07 204.5,1034C 205.833,1033.33 207.167,1033.33 208.5,1034C 205.983,1036.35 203.65,1038.85 201.5,1041.5C 204.043,1045.42 206.71,1049.25 209.5,1053C 207.741,1053.8 206.074,1053.63 204.5,1052.5C 202.5,1049.83 200.5,1047.17 198.5,1044.5C 197.516,1047.43 197.183,1050.43 197.5,1053.5C 196.167,1053.5 194.833,1053.5 193.5,1053.5C 193.5,1044.83 193.5,1036.17 193.5,1027.5C 194.5,1027.5 195.5,1027.5 196.5,1027.5 Z"/></g>
<g><path style="opacity:1" fill="#4f515f" d="M 217.5,1026.5 C 215.901,1026.23 214.568,1026.57 213.5,1027.5C 213.205,1029.74 213.539,1031.74 214.5,1033.5C 214.369,1034.38 214.702,1035.04 215.5,1035.5C 216.86,1034.82 218.193,1034.15 219.5,1033.5C 217.554,1036.81 214.887,1037.31 211.5,1035C 208.803,1031.73 209.136,1028.73 212.5,1026C 214.387,1025.22 216.054,1025.39 217.5,1026.5 Z"/></g>
<g><path style="opacity:1" fill="#cbcdd8" d="M 213.5,1027.5 C 216.797,1027.33 217.131,1028 214.5,1029.5C 215.167,1030.17 215.833,1030.83 216.5,1031.5C 216.154,1032.7 215.654,1032.7 215,1031.5C 214.536,1032.09 214.369,1032.76 214.5,1033.5C 213.539,1031.74 213.205,1029.74 213.5,1027.5 Z"/></g>
<g><path style="opacity:1" fill="#272835" d="M 213.5,1027.5 C 214.568,1026.57 215.901,1026.23 217.5,1026.5C 219.168,1028.48 219.834,1030.81 219.5,1033.5C 218.193,1034.15 216.86,1034.82 215.5,1035.5C 214.702,1035.04 214.369,1034.38 214.5,1033.5C 214.369,1032.76 214.536,1032.09 215,1031.5C 215.654,1032.7 216.154,1032.7 216.5,1031.5C 215.833,1030.83 215.167,1030.17 214.5,1029.5C 217.131,1028 216.797,1027.33 213.5,1027.5 Z"/></g>
<g><path style="opacity:1" fill="#8e909e" d="M 217.5,1026.5 C 218.496,1026.41 219.329,1026.75 220,1027.5C 220.789,1029.71 220.622,1031.71 219.5,1033.5C 219.834,1030.81 219.168,1028.48 217.5,1026.5 Z"/></g>
<g><path style="opacity:1" fill="#96969d" d="M 196.5,1027.5 C 197.167,1031.5 197.833,1035.5 198.5,1039.5C 198.44,1040.04 198.107,1040.38 197.5,1040.5C 196.508,1036.22 196.174,1031.88 196.5,1027.5 Z"/></g>
<g><path style="opacity:1" fill="#e9eaec" d="M 114.5,1033.5 C 115.735,1033.72 116.735,1034.39 117.5,1035.5C 118.968,1033.67 120.635,1033.33 122.5,1034.5C 120.253,1035.24 118.42,1036.58 117,1038.5C 116.829,1043.53 116.329,1048.53 115.5,1053.5C 114.503,1046.87 114.17,1040.2 114.5,1033.5 Z"/></g>
<g><path style="opacity:1" fill="#f1f0f2" d="M 161.5,1033.5 C 172.012,1033.15 175.845,1038.15 173,1048.5C 170.459,1053.07 166.625,1054.57 161.5,1053C 159.333,1052.17 157.833,1050.67 157,1048.5C 156.333,1045.17 156.333,1041.83 157,1038.5C 158.025,1036.31 159.525,1034.65 161.5,1033.5 Z"/></g>
<g><path style="opacity:1" fill="#e5e5e9" d="M 98.5,1033.5 C 107.987,1032.82 112.154,1037.15 111,1046.5C 109.154,1053 104.988,1055.16 98.5,1053C 91.8735,1046.47 91.8735,1039.97 98.5,1033.5 Z"/></g>
<g><path style="opacity:1" fill="#eeeef0" d="M 181.5,1033.5 C 184.187,1033.34 186.854,1033.5 189.5,1034C 190.784,1035.3 190.617,1036.46 189,1037.5C 183.678,1035.58 180.512,1037.41 179.5,1043C 180.431,1049.8 184.098,1051.97 190.5,1049.5C 190.126,1052.62 188.293,1053.95 185,1053.5C 177.427,1051.37 174.761,1046.37 177,1038.5C 178.366,1036.64 179.866,1034.97 181.5,1033.5 Z"/></g>
<g><path style="opacity:1" fill="#dddde1" d="M 73.5,1033.5 C 84.0384,1034.6 84.0384,1035.43 73.5,1036C 68.1667,1041 68.1667,1046 73.5,1051C 76.5,1051.33 79.5,1051.67 82.5,1052C 71.659,1055.17 66.8257,1051.01 68,1039.5C 69.3597,1036.98 71.193,1034.98 73.5,1033.5 Z"/></g>
<g><path style="opacity:1" fill="#141526" d="M 99.5,1035.5 C 107.315,1035.12 110.482,1038.79 109,1046.5C 107.336,1051.04 104.169,1052.54 99.5,1051C 94.208,1045.83 94.208,1040.67 99.5,1035.5 Z"/></g>
<g><path style="opacity:1" fill="#e4e5e9" d="M 636.5,1038.5 C 642.867,1038.87 645.034,1042.21 643,1048.5C 641.666,1052.1 639.166,1053.27 635.5,1052C 632.517,1047.1 632.85,1042.6 636.5,1038.5 Z"/></g>
<g><path style="opacity:1" fill="#e0e0e5" d="M 648.5,1038.5 C 650.722,1038.18 652.556,1038.84 654,1040.5C 653.779,1043.23 653.945,1045.9 654.5,1048.5C 652.636,1052.91 649.803,1053.57 646,1050.5C 645.244,1048.19 645.744,1046.19 647.5,1044.5C 646.027,1042.14 646.361,1040.14 648.5,1038.5 Z"/></g>
<g><path style="opacity:1" fill="#242432" d="M 648.5,1040.5 C 649.833,1040.5 651.167,1040.5 652.5,1040.5C 652.5,1041.83 652.5,1043.17 652.5,1044.5C 649.5,1044.83 648.167,1043.5 648.5,1040.5 Z"/></g>
<g><path style="opacity:1" fill="#191b2b" d="M 162.5,1036.5 C 169.809,1036.67 172.309,1040.33 170,1047.5C 166.157,1051.73 162.823,1051.4 160,1046.5C 158.861,1042.58 159.695,1039.25 162.5,1036.5 Z"/></g>
<g><path style="opacity:1" fill="#dedee4" d="M 520.5,1042.5 C 525.665,1042.16 527.831,1044.5 527,1049.5C 524,1053.5 521,1053.5 518,1049.5C 517.162,1046.52 517.995,1044.19 520.5,1042.5 Z"/></g>
<g><path style="opacity:1" fill="#e6e7ea" d="M 604.5,1038.5 C 605.932,1042.61 607.266,1046.95 608.5,1051.5C 606.5,1052.83 604.5,1052.83 602.5,1051.5C 604.457,1048.43 604.957,1045.1 604,1041.5C 603.107,1042.71 602.274,1042.71 601.5,1041.5C 602.77,1040.71 603.77,1039.71 604.5,1038.5 Z"/></g>
<g><path style="opacity:1" fill="#1a1a2b" d="M 636.5,1040.5 C 638.144,1040.29 639.644,1040.62 641,1041.5C 641.667,1043.83 641.667,1046.17 641,1048.5C 639.333,1051.17 637.667,1051.17 636,1048.5C 635.278,1045.74 635.445,1043.07 636.5,1040.5 Z"/></g>
<g><path style="opacity:1" fill="#e5e6ea" d="M 660.5,1038.5 C 661.932,1042.61 663.266,1046.95 664.5,1051.5C 662.5,1052.83 660.5,1052.83 658.5,1051.5C 660.457,1048.43 660.957,1045.1 660,1041.5C 659.107,1042.71 658.274,1042.71 657.5,1041.5C 658.77,1040.71 659.77,1039.71 660.5,1038.5 Z"/></g>
<g><path style="opacity:1" fill="#dfe0e3" d="M 680.5,1038.5 C 681.5,1038.5 682.5,1038.5 683.5,1038.5C 683.249,1041.91 683.583,1045.24 684.5,1048.5C 684.023,1049.93 683.357,1051.26 682.5,1052.5C 681.614,1051.68 681.281,1050.68 681.5,1049.5C 679.5,1049.5 677.5,1049.5 675.5,1049.5C 676.887,1045.73 678.553,1042.06 680.5,1038.5 Z"/></g>
<g><path style="opacity:1" fill="#e2e2e5" d="M 54.5,1033.5 C 61.9884,1033.32 65.3218,1036.99 64.5,1044.5C 60.1667,1044.5 55.8333,1044.5 51.5,1044.5C 51.5494,1047.1 52.5494,1049.27 54.5,1051C 58.0016,1051.28 61.3349,1051.45 64.5,1051.5C 53.4131,1055.51 48.5797,1051.51 50,1039.5C 50.8041,1036.85 52.3041,1034.85 54.5,1033.5 Z"/></g>
<g><path style="opacity:1" fill="#131424" d="M 54.5,1035.5 C 60.0079,1034.68 62.6746,1037.01 62.5,1042.5C 58.8333,1042.5 55.1667,1042.5 51.5,1042.5C 51.6878,1039.79 52.6878,1037.46 54.5,1035.5 Z"/></g>
<g><path style="opacity:1" fill="#dddee2" d="M 440.5,1039.5 C 441.209,1038.6 442.209,1038.26 443.5,1038.5C 444.814,1049.7 446.981,1050.03 450,1039.5C 450.718,1038.55 451.551,1038.38 452.5,1039C 450.981,1043.73 448.981,1048.23 446.5,1052.5C 444.098,1048.27 442.098,1043.93 440.5,1039.5 Z"/></g>
<g><path style="opacity:1" fill="#e0e1e4" d="M 475.5,1040.5 C 476.931,1041.45 478.264,1042.61 479.5,1044C 476.895,1046.41 476.895,1048.91 479.5,1051.5C 478.349,1052.73 477.183,1052.73 476,1051.5C 475.095,1047.75 474.928,1044.08 475.5,1040.5 Z"/></g>
<g><path style="opacity:1" fill="#e6e6e9" d="M 511.5,1040.5 C 512.931,1041.45 514.264,1042.61 515.5,1044C 512.895,1046.41 512.895,1048.91 515.5,1051.5C 514.132,1052.59 512.965,1052.26 512,1050.5C 511.028,1047.09 510.862,1043.75 511.5,1040.5 Z"/></g>
<g><path style="opacity:1" fill="#e9e9ec" d="M 576.5,1042.5 C 578.263,1043.63 580.096,1043.63 582,1042.5C 583.326,1042.75 584.326,1043.42 585,1044.5C 586.466,1042.68 588.299,1042.18 590.5,1043C 591.787,1046.12 591.787,1049.29 590.5,1052.5C 589.52,1049.91 589.187,1047.25 589.5,1044.5C 588.178,1044.33 587.011,1044.66 586,1045.5C 584.63,1054.54 583.797,1054.21 583.5,1044.5C 581.856,1044.29 580.356,1044.62 579,1045.5C 578.814,1047.9 578.314,1050.23 577.5,1052.5C 576.513,1049.23 576.18,1045.9 576.5,1042.5 Z"/></g>
<g><path style="opacity:1" fill="#d0d0d7" d="M 597.5,1038.5 C 598.376,1038.37 599.043,1038.7 599.5,1039.5C 597.951,1044.32 596.118,1048.99 594,1053.5C 594.678,1048.45 595.845,1043.45 597.5,1038.5 Z"/></g>
<g><path style="opacity:1" fill="#171826" d="M 680.5,1041.5 C 681.461,1043.26 681.795,1045.26 681.5,1047.5C 680.127,1047.66 678.793,1047.49 677.5,1047C 678.758,1045.26 679.758,1043.43 680.5,1041.5 Z"/></g>
<g><path style="opacity:1" fill="#e4e5e8" d="M 539.5,1038.5 C 541.062,1040.37 542.062,1042.71 542.5,1045.5C 547.399,1041.45 548.066,1041.78 544.5,1046.5C 548.312,1053.93 547.645,1054.26 542.5,1047.5C 541.833,1049.17 541.167,1050.83 540.5,1052.5C 539.507,1047.88 539.173,1043.21 539.5,1038.5 Z"/></g>
<g><path style="opacity:1" fill="#e3e3e9" d="M 567.5,1042.5 C 574.803,1043.27 576.136,1046.43 571.5,1052C 566.333,1052.83 564.167,1050.67 565,1045.5C 565.698,1044.31 566.531,1043.31 567.5,1042.5 Z"/></g>
<g><path style="opacity:1" fill="#dedfe3" d="M 615.5,1038.5 C 616.5,1038.5 617.5,1038.5 618.5,1038.5C 618.249,1041.91 618.583,1045.24 619.5,1048.5C 619.023,1049.93 618.357,1051.26 617.5,1052.5C 616.614,1051.68 616.281,1050.68 616.5,1049.5C 614.5,1049.5 612.5,1049.5 610.5,1049.5C 611.887,1045.73 613.553,1042.06 615.5,1038.5 Z"/></g>
<g><path style="opacity:1" fill="#161727" d="M 615.5,1041.5 C 616.461,1043.26 616.795,1045.26 616.5,1047.5C 615.127,1047.66 613.793,1047.49 612.5,1047C 613.758,1045.26 614.758,1043.43 615.5,1041.5 Z"/></g>
<g><path style="opacity:1" fill="#e5e6e8" d="M 623.5,1038.5 C 625.924,1038.19 628.257,1038.53 630.5,1039.5C 624.732,1040.5 624.398,1041.84 629.5,1043.5C 632.167,1046.17 632.167,1048.83 629.5,1051.5C 626.917,1052.94 624.583,1052.6 622.5,1050.5C 622.833,1050.17 623.167,1049.83 623.5,1049.5C 628.603,1051.56 630.27,1050.06 628.5,1045C 626.866,1044.51 625.199,1044.34 623.5,1044.5C 623.5,1042.5 623.5,1040.5 623.5,1038.5 Z"/></g>
<g><path style="opacity:1" fill="#e4e4ea" d="M 484.5,1042.5 C 491.821,1043.32 493.154,1046.49 488.5,1052C 483.333,1052.83 481.167,1050.67 482,1045.5C 482.698,1044.31 483.531,1043.31 484.5,1042.5 Z"/></g>
<g><path style="opacity:1" fill="#dddde3" d="M 532.5,1042.5 C 540.32,1043.48 540.32,1044.32 532.5,1045C 531.167,1046.67 531.167,1048.33 532.5,1050C 534.5,1050.33 536.5,1050.67 538.5,1051C 534.027,1053.61 531.027,1052.44 529.5,1047.5C 529.757,1045.31 530.757,1043.64 532.5,1042.5 Z"/></g>
<g><path style="opacity:1" fill="#e2e2e5" d="M 455.5,1042.5 C 459.851,1041.53 462.185,1043.2 462.5,1047.5C 453.395,1048.14 453.395,1049.31 462.5,1051C 457.523,1053.9 454.523,1052.57 453.5,1047C 453.519,1045.17 454.185,1043.67 455.5,1042.5 Z"/></g>
<g><path style="opacity:1" fill="#5b5a67" d="M 455.5,1044.5 C 457.288,1044.21 458.955,1044.55 460.5,1045.5C 459.667,1045.83 458.833,1046.17 458,1046.5C 456.624,1046.32 455.791,1045.65 455.5,1044.5 Z"/></g>
<g><path style="opacity:1" fill="#eaecec" d="M 493.5,1042.5 C 495.225,1043.28 496.891,1043.61 498.5,1043.5C 497.758,1044.29 496.925,1044.95 496,1045.5C 495.814,1047.9 495.314,1050.23 494.5,1052.5C 493.513,1049.23 493.18,1045.9 493.5,1042.5 Z"/></g>
<g><path style="opacity:1" fill="#d9dadf" d="M 502.5,1038.5 C 504.977,1038.05 506.977,1038.72 508.5,1040.5C 507.091,1040.65 505.424,1040.82 503.5,1041C 503.043,1041.41 502.709,1041.91 502.5,1042.5C 504.427,1044.1 506.594,1045.44 509,1046.5C 509.486,1051.99 506.986,1053.83 501.5,1052C 501.043,1051.59 500.709,1051.09 500.5,1050.5C 502.343,1050.24 504.343,1050.08 506.5,1050C 506.957,1049.59 507.291,1049.09 507.5,1048.5C 505.063,1047.2 502.896,1045.53 501,1043.5C 500.387,1041.5 500.887,1039.84 502.5,1038.5 Z"/></g>
<g><path style="opacity:1" fill="#1a1b2a" d="M 567.5,1044.5 C 572.159,1044.01 573.492,1045.85 571.5,1050C 566.728,1050.81 565.395,1048.98 567.5,1044.5 Z"/></g>
<g><path style="opacity:1" fill="#e2e3e6" d="M 29.5,1028.5 C 31.2667,1027.35 32.4334,1028.02 33,1030.5C 35.1361,1037.24 37.4695,1043.91 40,1050.5C 42.8825,1042.68 46.0491,1035.01 49.5,1027.5C 49.8333,1027.83 50.1667,1028.17 50.5,1028.5C 47.3933,1036.66 44.3933,1044.82 41.5,1053C 39.892,1053.66 38.7253,1053.16 38,1051.5C 35.2356,1043.7 32.4023,1036.03 29.5,1028.5 Z"/></g>
<g><path style="opacity:1" fill="#191929" d="M 520.5,1044.5 C 525.159,1044.01 526.492,1045.85 524.5,1050C 519.728,1050.81 518.395,1048.98 520.5,1044.5 Z"/></g>
<g><path style="opacity:1" fill="#d9dadf" d="M 557.5,1042.5 C 565.32,1043.48 565.32,1044.32 557.5,1045C 555.73,1050.06 557.397,1051.56 562.5,1049.5C 563.711,1050.27 563.711,1051.11 562.5,1052C 558.168,1053.34 555.501,1051.84 554.5,1047.5C 554.757,1045.31 555.757,1043.64 557.5,1042.5 Z"/></g>
<g><path style="opacity:1" fill="#dddee3" d="M 467.5,1042.5 C 475.32,1043.48 475.32,1044.32 467.5,1045C 466.167,1046.67 466.167,1048.33 467.5,1050C 469.5,1050.33 471.5,1050.67 473.5,1051C 469.027,1053.61 466.027,1052.44 464.5,1047.5C 464.757,1045.31 465.757,1043.64 467.5,1042.5 Z"/></g>
<g><path style="opacity:1" fill="#1e1d2c" d="M 484.5,1044.5 C 489.159,1044.01 490.492,1045.85 488.5,1050C 483.728,1050.81 482.395,1048.98 484.5,1044.5 Z"/></g>
<g><path style="opacity:1" fill="#171726" d="M 648.5,1045.5 C 651.519,1045.97 652.519,1047.47 651.5,1050C 647.707,1050.49 646.707,1048.99 648.5,1045.5 Z"/></g>
<g><path style="opacity:1" fill="#eff1f0" d="M 549.5,1050.5 C 551.337,1050.64 551.67,1051.31 550.5,1052.5C 549.702,1052.04 549.369,1051.38 549.5,1050.5 Z"/></g>
<g><path style="opacity:1" fill="#e3e4e7" d="M 669.5,1038.5 C 670.932,1042.61 672.266,1046.95 673.5,1051.5C 671.5,1052.83 669.5,1052.83 667.5,1051.5C 669.457,1048.43 669.957,1045.1 669,1041.5C 668.107,1042.71 667.274,1042.71 666.5,1041.5C 667.77,1040.71 668.77,1039.71 669.5,1038.5 Z"/></g>
</svg>
